<?xml version="1.0" standalone="no"?>
<!DOCTYPE svg PUBLIC "-//W3C//DTD SVG 20010904//EN"
 "http://www.w3.org/TR/2001/REC-SVG-20010904/DTD/svg10.dtd">
<svg version="1.0" xmlns="http://www.w3.org/2000/svg"
 width="984.000000pt" height="984.000000pt" viewBox="0 0 984.000000 984.000000"
 preserveAspectRatio="xMidYMid meet">
<metadata>
Created by potrace 1.11, written by Peter Selinger 2001-2013
</metadata>
<g transform="translate(0.000000,984.000000) scale(0.100000,-0.100000)"
fill="#000000" stroke="none">
<path d="M4590 9744 c-74 -11 -175 -25 -255 -35 -49 -6 -100 -15 -112 -19 -14
-6 -25 -5 -29 1 -14 23 -454 -57 -454 -82 0 -11 -42 -38 -66 -44 -44 -9 -109
-37 -125 -53 -29 -32 -38 -57 -53 -155 -20 -122 -20 -149 1 -195 9 -20 17 -39
18 -42 0 -3 9 -19 18 -37 25 -47 67 -52 170 -19 148 46 349 96 392 96 31 1 59
28 61 58 1 23 6 28 40 34 44 8 167 25 234 33 25 3 68 8 95 11 86 11 646 13
735 3 47 -5 108 -11 135 -14 28 -3 64 -7 81 -9 99 -11 113 -17 119 -47 7 -32
45 -54 77 -46 9 3 18 1 20 -5 2 -5 47 -18 99 -28 123 -24 310 -73 417 -111 46
-16 92 -29 101 -29 59 0 111 133 111 284 0 107 -7 129 -59 185 -37 39 -61 55
-107 70 -53 17 -132 41 -159 47 -5 1 -55 13 -110 27 -256 65 -692 127 -897
127 -56 0 -71 -4 -88 -22 -11 -12 -20 -25 -20 -30 0 -4 -43 -8 -95 -8 -52 0
-95 4 -95 8 0 5 -9 18 -20 30 -18 19 -31 22 -88 21 -37 -1 -78 -3 -92 -5z"/>
<path d="M3416 9443 c-4 -9 -2 -21 4 -27 8 -8 9 -6 4 8 -5 13 -4 17 4 12 8 -5
10 -2 6 8 -8 20 -10 20 -18 -1z"/>
<path d="M3172 9400 c-46 -43 -43 -210 5 -327 17 -40 28 -75 25 -78 -3 -3 0
-5 6 -5 7 0 12 -6 12 -13 0 -18 38 -48 66 -53 13 -2 38 3 54 11 49 25 53 91 7
137 -37 39 -57 113 -57 217 0 83 -2 96 -22 112 -28 25 -69 24 -96 -1z"/>
<path d="M6608 9388 c-8 -7 -23 -18 -33 -24 -17 -9 -20 -24 -23 -97 -2 -78 -1
-87 20 -106 25 -24 83 -28 110 -7 9 7 29 40 44 74 37 85 29 126 -29 153 -49
22 -71 24 -89 7z"/>
<path d="M6953 9230 c-53 -22 -35 -97 30 -126 23 -10 44 -21 47 -25 9 -12 146
-79 161 -79 23 0 59 38 59 63 -1 36 -29 61 -130 117 -102 55 -133 65 -167 50z"/>
<path d="M2470 9088 c-41 -44 -4 -115 54 -104 38 8 57 34 51 70 -10 55 -68 74
-105 34z"/>
<path d="M6560 9090 c-11 -11 -26 -20 -32 -20 -48 -2 -74 -80 -38 -117 11 -13
28 -23 38 -23 9 0 33 -3 53 -6 30 -5 40 -2 62 20 22 22 27 36 27 75 0 79 -62
119 -110 71z"/>
<path d="M2303 8985 c-37 -16 -49 -48 -34 -87 13 -36 60 -46 101 -21 36 21 47
52 29 85 -22 41 -42 47 -96 23z"/>
<path d="M6450 8730 c-13 -11 -28 -20 -33 -20 -15 0 -36 -33 -37 -57 0 -29 40
-70 64 -65 10 2 23 -2 30 -9 8 -9 8 -10 -2 -5 -7 4 -21 4 -33 1 -16 -5 -18 -9
-8 -21 10 -12 9 -13 -5 -8 -10 4 -15 13 -12 20 3 7 0 16 -6 20 -6 4 -8 3 -4
-4 3 -6 2 -14 -4 -17 -8 -5 -7 -12 2 -23 9 -11 5 -10 -17 4 -16 10 -26 14 -22
8 9 -15 -20 -27 -58 -25 -19 1 -40 -6 -54 -18 -12 -11 -27 -21 -33 -23 -5 -2
-13 -22 -18 -46 -6 -36 -4 -44 14 -57 12 -9 14 -13 6 -9 -13 7 -13 5 -1 -9 15
-19 26 -23 15 -6 -4 7 -1 10 7 7 8 -3 13 -11 11 -18 -2 -11 0 -11 11 -2 15 13
47 6 47 -9 0 -5 7 -9 15 -9 9 0 20 -10 25 -22 5 -13 9 -17 9 -10 1 7 6 10 11
7 6 -4 8 -10 5 -15 -3 -5 0 -12 6 -16 8 -4 9 -3 5 4 -4 7 -3 12 3 12 5 0 13
-4 16 -10 3 -5 15 -10 26 -10 11 0 19 -7 19 -16 0 -9 -5 -12 -12 -8 -7 5 -8 3
-3 -6 6 -10 11 -10 20 4 11 15 13 14 20 -11 6 -24 8 -25 16 -11 10 18 39 14
39 -4 0 -6 -8 -4 -17 3 -16 13 -17 12 -4 -4 9 -11 18 -14 25 -8 7 6 20 4 36
-5 21 -12 22 -14 5 -12 -11 2 -24 8 -28 13 -5 6 -7 4 -4 -5 2 -8 10 -14 16
-12 6 1 11 -3 11 -9 0 -5 5 -7 10 -4 17 10 52 -5 46 -21 -3 -7 0 -16 6 -20 6
-4 8 -3 4 4 -3 6 -2 13 4 17 9 6 14 -8 11 -28 -1 -5 3 -6 9 -2 5 3 10 2 10 -4
0 -6 7 -7 17 -4 9 4 14 2 10 -3 -3 -6 -1 -16 5 -24 8 -12 9 -12 4 3 -3 11 0
17 10 17 11 0 14 -6 9 -22 -7 -22 -6 -22 7 -4 12 15 17 16 23 6 5 -9 4 -11 -3
-6 -7 4 -12 2 -12 -5 0 -7 8 -9 21 -6 12 3 22 0 26 -9 3 -8 12 -13 20 -10 9 4
11 2 7 -6 -5 -8 -2 -9 9 -5 10 4 16 2 14 -5 -1 -7 3 -13 8 -13 6 -1 18 -5 28
-10 17 -7 17 -8 0 -21 -17 -12 -16 -13 5 -9 12 2 22 0 22 -6 0 -9 -14 -13 -39
-10 -7 2 -10 -2 -7 -8 4 -5 -3 -15 -14 -21 -15 -8 -19 -17 -14 -32 4 -15 3
-18 -7 -13 -9 6 -11 4 -6 -8 7 -19 -8 -32 -19 -16 -5 8 -3 9 7 4 12 -8 12 -6
0 8 -18 22 -18 22 -16 -10 1 -16 7 -27 12 -26 6 1 17 -5 25 -14 11 -14 11 -16
-2 -8 -26 16 -39 14 -55 -12 -9 -14 -19 -22 -23 -19 -3 3 -14 -6 -24 -21 -10
-16 -18 -23 -18 -16 0 6 5 15 10 18 6 4 8 11 5 16 -4 5 -1 10 4 10 6 1 16 2
23 3 16 2 21 23 7 32 -7 4 -9 3 -5 -4 6 -10 -30 -28 -48 -23 -5 1 -4 -5 4 -13
8 -11 9 -16 1 -16 -6 0 -11 -9 -11 -20 0 -20 -26 -39 -48 -34 -7 1 -8 0 -2 -3
13 -6 13 -33 -1 -33 -5 0 -7 5 -3 11 3 6 -5 3 -20 -6 -14 -10 -26 -19 -26 -21
0 -8 25 1 32 11 4 5 6 0 5 -12 -1 -16 -5 -19 -13 -12 -8 7 -17 5 -27 -5 -8 -8
-18 -12 -22 -8 -5 4 -6 3 -3 -3 6 -13 -38 -55 -48 -46 -4 3 -4 0 1 -8 7 -12
10 -11 22 4 7 11 13 15 13 9 -1 -18 -28 -45 -35 -35 -3 6 -12 11 -18 11 -8 0
-8 -3 -2 -8 16 -11 3 -62 -17 -62 -5 0 -7 4 -4 8 2 4 0 14 -6 22 -8 12 -9 12
-4 -3 4 -12 -2 -20 -19 -27 -31 -12 -31 -14 -2 -41 l22 -23 -27 17 c-23 14
-26 15 -22 2 4 -11 2 -13 -9 -9 -8 3 -18 0 -22 -5 -3 -6 -11 -8 -17 -5 -5 4
-2 -6 8 -22 10 -16 12 -23 4 -16 -21 18 -35 15 -19 -5 8 -9 9 -14 3 -10 -7 4
-14 0 -18 -8 -6 -17 -26 -20 -26 -4 0 5 5 7 12 3 7 -4 8 -3 4 5 -12 19 -27 1
-20 -22 6 -20 5 -21 -11 -7 -11 8 -16 10 -13 5 4 -6 3 -16 -1 -23 -9 -15 -44
-1 -286 106 -165 73 -232 104 -400 182 -171 80 -453 202 -477 207 -54 11 -109
-45 -95 -97 3 -11 1 -17 -4 -14 -6 3 -16 1 -23 -5 -9 -8 -13 -7 -13 4 0 8 3
12 7 10 4 -2 7 3 7 11 0 10 -4 11 -11 4 -15 -15 -30 -12 -17 3 8 10 7 14 -4
14 -8 0 -12 -4 -9 -9 3 -4 0 -8 -5 -8 -6 0 -11 5 -11 10 0 6 -5 10 -11 10 -6
0 -9 -6 -6 -13 3 -8 1 -20 -5 -28 -8 -11 -9 -11 -4 3 3 10 2 19 -2 22 -4 2 -9
-5 -10 -18 -1 -14 8 -27 24 -37 21 -13 23 -17 10 -22 -9 -4 -15 -2 -13 5 1 6
-5 13 -13 15 -13 4 -13 3 0 -6 8 -6 11 -11 6 -11 -6 0 -5 -5 1 -11 6 -6 9 -19
6 -28 -4 -13 -3 -14 5 -1 6 8 8 18 6 22 -3 4 2 5 10 2 9 -3 16 -10 16 -16 0
-5 -4 -6 -10 -3 -5 3 -10 2 -10 -4 0 -5 9 -13 20 -16 13 -4 20 -15 20 -31 0
-27 3 -28 33 -13 19 9 19 8 -3 -13 -14 -12 -24 -22 -21 -21 2 2 10 -5 17 -15
7 -9 17 -18 23 -18 6 -1 16 -2 22 -3 5 0 7 -6 4 -12 -4 -6 2 -13 13 -16 14 -3
19 -11 17 -24 -2 -11 0 -17 6 -14 5 4 7 11 4 16 -4 5 1 9 9 9 19 0 21 -11 4
-28 -9 -9 -9 -12 -1 -12 7 0 15 10 18 21 7 21 8 20 25 -7 11 -15 17 -30 15
-34 -2 -3 11 -5 29 -4 22 1 33 -3 33 -12 0 -11 -3 -11 -16 -1 -14 11 -14 10
-2 -6 11 -14 16 -15 29 -5 13 10 14 10 8 1 -4 -8 -1 -13 9 -13 21 0 46 -25 37
-36 -4 -5 0 -3 9 4 13 10 21 8 42 -8 14 -11 28 -20 31 -20 4 0 25 -9 49 -19
48 -23 163 -60 287 -94 67 -18 84 -27 82 -40 -2 -12 2 -15 15 -11 15 4 14 3
-2 -8 -21 -14 -34 -45 -14 -32 8 5 10 -2 7 -23 -3 -20 0 -30 9 -30 9 0 11 7 7
21 -8 25 -1 20 16 -13 6 -13 7 -21 2 -17 -6 3 -13 2 -17 -4 -3 -5 0 -10 8 -10
19 0 30 -27 15 -36 -6 -4 -8 -3 -5 3 4 6 0 14 -8 17 -12 4 -13 2 -6 -13 6 -10
7 -21 4 -25 -3 -3 -2 -6 3 -6 5 0 10 -9 11 -20 1 -11 -4 -20 -10 -20 -7 0 -6
-4 3 -9 8 -6 17 -8 21 -5 4 2 11 -1 15 -7 4 -8 3 -9 -4 -5 -7 4 -12 2 -12 -5
0 -7 -3 -9 -7 -6 -3 4 -12 2 -19 -4 -8 -6 -21 -9 -29 -5 -9 3 -13 2 -10 -4 3
-6 -3 -11 -14 -11 -12 -1 -27 -2 -33 -3 -7 -1 -16 -5 -19 -9 -3 -4 -17 -9 -30
-11 -13 -1 -37 -8 -52 -14 -16 -7 -33 -10 -38 -6 -5 3 -9 0 -9 -5 0 -18 -21
-12 -40 11 -37 46 -126 19 -118 -37 2 -11 -4 -26 -12 -33 -8 -8 -9 -11 -3 -7
8 4 11 1 7 -9 -3 -8 -12 -12 -20 -9 -10 4 -12 0 -8 -11 3 -9 4 -16 0 -16 -3 0
-10 15 -16 33 l-10 32 5 -35 c5 -35 4 -35 -10 -10 -10 18 -14 20 -15 8 0 -9
-5 -20 -11 -24 -8 -4 -9 1 -4 17 5 18 4 21 -4 13 -6 -6 -13 -21 -16 -33 -3
-18 -1 -22 13 -17 14 5 14 3 -2 -9 -22 -17 -42 -9 -26 10 8 9 8 15 0 20 -5 3
-10 5 -11 3 -7 -32 -7 -48 2 -48 8 0 8 -4 0 -14 -9 -11 -9 -16 0 -22 7 -4 9
-3 5 4 -4 6 4 16 16 23 20 11 21 10 11 -2 -7 -8 -10 -25 -6 -37 3 -15 1 -22
-8 -22 -9 -1 -8 -4 4 -11 13 -7 22 -7 31 0 9 8 13 7 13 -4 0 -8 -4 -12 -9 -9
-4 3 -8 1 -8 -5 0 -6 -6 -8 -14 -5 -8 3 -17 0 -22 -7 -5 -9 -2 -10 9 -6 9 3
19 2 22 -4 4 -5 10 -7 15 -4 5 3 11 1 15 -4 3 -6 -5 -8 -19 -5 -24 4 -56 -17
-56 -37 0 -6 -4 -8 -9 -5 -4 3 -7 -5 -6 -17 2 -12 -4 -28 -11 -35 -16 -15 -18
-8 -5 17 7 13 6 18 -3 18 -9 0 -13 -12 -12 -33 1 -18 -1 -32 -4 -32 -3 0 -18
0 -34 -1 l-28 -1 23 -20 c13 -10 18 -19 12 -20 -7 0 -13 5 -13 10 0 6 -5 10
-11 10 -5 0 -7 -5 -3 -12 5 -8 2 -9 -9 -5 -19 7 -33 -8 -17 -18 8 -5 7 -11 -1
-21 -6 -7 -16 -11 -21 -8 -5 3 -12 -4 -15 -16 -4 -16 -8 -18 -14 -9 -4 8 -3
20 4 29 10 13 10 13 -4 3 -9 -7 -14 -25 -13 -43 2 -26 0 -29 -12 -19 -12 9
-13 9 -9 -4 4 -8 1 -18 -4 -22 -6 -3 -9 -11 -5 -16 3 -5 10 -6 16 -3 6 4 8 2
5 -4 -4 -5 -15 -9 -25 -7 -9 1 -22 -2 -29 -7 -7 -6 -14 -5 -19 3 -4 7 -3 9 3
6 6 -4 20 4 32 17 26 27 16 41 -14 20 -10 -8 -13 -14 -6 -14 7 0 9 -5 6 -10
-4 -6 -10 -8 -15 -5 -5 3 -17 -6 -26 -20 -9 -13 -21 -22 -27 -18 -6 3 -7 1 -3
-6 4 -6 0 -14 -8 -17 -9 -3 -13 -11 -10 -16 4 -6 14 -1 25 13 18 24 18 24 12
2 -5 -21 -14 -28 -28 -20 -2 1 -11 -7 -20 -18 -9 -11 -14 -15 -11 -8 4 6 2 14
-3 17 -11 7 -9 -13 3 -32 5 -8 3 -18 -4 -25 -10 -9 -11 -9 -6 0 4 7 -1 22 -11
32 -18 19 -19 19 -19 1 0 -10 4 -16 8 -14 4 3 7 -6 6 -20 -1 -14 -4 -23 -7
-21 -2 3 -18 -4 -36 -15 -18 -11 -36 -16 -41 -12 -4 4 -2 -1 5 -11 11 -14 12
-20 2 -30 -10 -9 -11 -8 -6 4 4 10 0 19 -9 22 -10 4 -13 1 -10 -8 4 -9 -29 3
-83 29 -48 24 -128 62 -178 86 -164 78 -570 282 -582 292 -7 6 -13 8 -13 5 0
-3 -27 10 -61 29 -33 18 -63 34 -65 34 -7 0 -42 38 -52 57 -6 10 -22 63 -37
118 -35 133 -42 150 -70 165 -25 13 -32 12 -194 -34 -30 -8 -58 -13 -63 -10
-4 3 -8 1 -8 -3 0 -5 -27 -15 -60 -22 -33 -8 -63 -17 -65 -21 -3 -5 -18 -7
-34 -6 -17 1 -28 -2 -25 -6 3 -4 2 -8 -3 -8 -4 0 -38 -9 -75 -19 l-68 -19 -11
41 c-6 23 -10 42 -8 42 1 0 -3 10 -9 22 -12 21 -6 27 105 100 149 99 144 96
162 110 170 128 334 279 373 343 12 19 24 37 28 40 17 15 63 130 84 211 18 69
24 114 22 168 -3 67 -6 77 -30 98 -44 38 -81 31 -164 -32 -39 -29 -72 -51 -72
-47 0 4 -5 0 -10 -8 -6 -10 -10 -11 -10 -2 0 6 -7 12 -15 12 -8 0 -15 -5 -15
-12 0 -6 -2 -9 -5 -6 -10 9 5 35 20 35 8 0 15 -3 15 -7 0 -4 7 -7 16 -7 15 0
15 1 0 12 -8 7 -12 16 -8 21 4 4 0 3 -9 -4 -9 -6 -18 -10 -21 -7 -3 3 -11 -1
-18 -10 -7 -8 -20 -15 -28 -15 -13 0 -12 -2 3 -14 22 -16 28 -43 9 -43 -10 0
-11 4 -3 14 9 10 7 14 -7 19 -11 4 -22 8 -25 10 -11 6 -6 -31 5 -39 7 -5 3 -7
-9 -5 -15 2 -19 -2 -17 -17 2 -16 1 -17 -7 -5 -6 9 -6 18 0 26 7 8 6 14 -1 19
-6 4 -10 3 -9 -2 4 -21 -2 -24 -18 -12 -16 12 -17 12 -6 -1 18 -24 20 -65 3
-65 -8 -1 -14 -6 -12 -13 1 -8 -6 -7 -23 4 -20 13 -24 14 -20 2 4 -9 -4 -20
-20 -28 -15 -8 -31 -22 -36 -32 -6 -10 -15 -15 -21 -12 -7 4 -8 3 -4 -4 3 -6
-3 -16 -14 -22 -11 -6 -20 -16 -20 -22 0 -7 16 4 37 23 20 18 32 27 28 19 -5
-8 -17 -21 -28 -29 -18 -13 -18 -14 0 -35 18 -21 18 -21 -4 -3 -20 17 -22 17
-31 1 -6 -11 -11 -13 -16 -5 -4 6 -2 11 4 11 6 0 8 5 4 11 -12 20 -23 -13 -12
-35 10 -19 9 -19 -5 -8 -13 11 -17 10 -26 -6 -7 -13 -7 -23 2 -32 10 -12 9
-12 -6 -1 -9 8 -21 11 -24 7 -4 -4 -1 -11 7 -16 8 -6 10 -10 5 -10 -6 0 -15 4
-21 10 -5 5 -15 6 -23 1 -10 -7 -8 -10 9 -16 17 -5 19 -9 9 -16 -8 -5 -21 -2
-34 9 -11 9 -17 13 -13 8 11 -13 -11 -48 -25 -39 -6 4 -1 -11 11 -33 17 -30
18 -34 4 -17 -12 14 -23 18 -32 13 -8 -5 -17 -7 -21 -4 -4 2 -10 0 -14 -5 -3
-6 3 -8 15 -6 11 2 20 0 20 -6 0 -5 -9 -9 -19 -9 -19 0 -22 -14 -8 -38 5 -7
13 -9 19 -6 7 5 8 2 4 -5 -6 -9 -12 -8 -26 4 -16 14 -18 14 -34 -7 -16 -22
-16 -22 -6 -1 7 15 7 24 0 28 -6 4 -9 2 -8 -4 2 -5 -6 -17 -17 -26 -11 -9 -14
-14 -7 -10 6 3 12 1 12 -4 0 -6 -7 -11 -15 -11 -8 0 -15 5 -15 11 0 5 -5 7
-11 3 -8 -4 -5 -11 9 -18 18 -10 19 -12 4 -26 -14 -13 -15 -12 -9 3 3 9 2 17
-3 17 -9 0 -14 -13 -12 -31 0 -3 -11 -5 -26 -5 -17 1 -27 -4 -27 -14 0 -8 -8
-14 -18 -14 -9 1 -15 -2 -12 -6 3 -4 -2 -13 -11 -21 -18 -15 -41 -54 -26 -45
5 3 12 0 15 -8 4 -10 0 -12 -14 -9 -13 4 -28 -2 -40 -16 -11 -12 -24 -19 -30
-16 -5 4 -9 2 -9 -4 0 -5 5 -13 10 -16 6 -3 10 -2 10 3 0 5 7 9 16 9 14 0 14
-2 -2 -14 -11 -8 -18 -19 -16 -24 1 -6 -2 -8 -8 -4 -6 3 -8 10 -5 15 3 4 -1
10 -8 13 -14 5 -79 -48 -70 -57 4 -3 -2 -6 -13 -7 -10 0 -13 -3 -6 -6 6 -2 12
-9 12 -14 0 -6 -4 -8 -9 -5 -5 3 -11 -3 -14 -14 -3 -11 -11 -20 -17 -20 -9 0
-9 5 1 18 13 15 12 16 -4 3 -10 -8 -15 -21 -12 -29 3 -10 0 -12 -10 -8 -8 3
-15 1 -15 -5 0 -6 -4 -7 -10 -4 -5 3 -10 1 -10 -5 0 -7 9 -9 23 -5 12 3 4 -4
-18 -16 -34 -19 -49 -21 -120 -15 -44 3 -91 8 -105 11 -14 3 -99 17 -190 31
-158 24 -220 41 -203 53 13 10 63 90 63 101 0 5 4 10 9 10 5 0 30 33 57 73 27
39 51 74 54 77 3 3 17 21 30 40 13 19 27 37 30 40 3 3 17 21 32 42 15 20 33
42 40 50 8 7 29 33 48 58 18 25 60 70 92 102 32 31 58 60 58 65 0 4 19 24 42
43 22 19 59 53 82 75 23 22 61 56 86 75 24 19 57 47 73 63 15 15 31 27 35 27
4 0 24 16 46 35 21 19 42 35 46 35 4 0 15 12 25 26 27 41 12 77 -48 116 -51
33 -53 33 -177 34 -69 0 -159 4 -201 8 -95 11 -113 6 -169 -41 -24 -21 -46
-37 -50 -35 -3 2 -13 10 -22 19 -16 14 -18 14 -24 -1 -3 -9 -10 -13 -15 -10
-5 3 -9 0 -9 -5 0 -14 6 -14 31 -1 11 6 19 7 19 1 0 -5 -11 -12 -24 -15 -14
-3 -32 -13 -41 -22 -13 -14 -19 -14 -28 -4 -7 7 -7 10 -2 7 17 -9 45 17 34 34
-7 11 -9 11 -9 -4 0 -10 -4 -16 -9 -12 -5 3 -17 -5 -26 -17 -8 -13 -21 -23
-28 -23 -13 -1 -13 -8 -2 -37 8 -20 -10 -25 -21 -6 -5 7 -3 8 7 3 12 -8 12 -6
0 8 -18 22 -17 22 -17 -13 0 -16 3 -30 8 -30 4 0 8 -6 8 -12 -1 -7 -10 -2 -20
11 -11 13 -20 18 -20 12 0 -6 -6 -9 -13 -7 -6 1 -8 1 -4 -2 4 -2 2 -11 -5 -20
-10 -12 -10 -14 0 -8 6 4 12 3 12 -2 0 -9 -26 -24 -33 -19 -2 1 -11 -6 -21
-16 -10 -9 -21 -15 -25 -13 -4 3 -8 -7 -9 -22 -3 -34 -20 -52 -31 -33 -7 11
-10 9 -16 -8 -3 -11 -11 -22 -16 -22 -5 -1 -15 -2 -21 -3 -7 0 -13 -7 -13 -14
0 -7 -7 -17 -15 -22 -10 -7 -11 -10 -2 -10 6 0 12 -4 12 -10 0 -5 -7 -7 -15
-4 -11 5 -13 2 -9 -10 5 -12 2 -15 -12 -9 -12 4 -15 3 -10 -6 4 -6 3 -18 -4
-26 -8 -10 -8 -19 0 -34 6 -12 8 -21 6 -21 -3 0 -10 9 -16 21 -8 15 -8 24 0
34 8 9 8 15 0 20 -6 4 -9 1 -8 -7 2 -7 -2 -12 -8 -11 -7 1 -10 -6 -7 -17 5
-20 -3 -24 -37 -21 -13 2 -13 1 0 -8 8 -6 11 -11 6 -11 -5 0 -3 -6 3 -14 8 -9
8 -16 2 -20 -5 -4 -13 0 -18 8 -7 12 -10 12 -21 0 -7 -8 -9 -14 -4 -14 4 0 17
-7 28 -16 10 -8 14 -13 7 -10 -6 4 -15 2 -18 -4 -4 -6 -16 -10 -28 -8 -12 2
-22 -3 -23 -9 -1 -7 -2 -16 -3 -20 0 -4 -8 2 -17 13 -14 18 -15 18 -4 -4 12
-26 36 -24 34 1 -1 9 2 15 6 12 10 -6 7 -61 -4 -72 -4 -4 -6 -2 -4 6 2 7 -3
16 -10 18 -8 3 -10 -2 -6 -14 5 -14 4 -15 -4 -3 -6 8 -8 18 -6 22 3 4 0 8 -5
8 -6 0 -11 -8 -12 -17 0 -10 -2 -26 -4 -35 -2 -10 2 -18 8 -18 5 0 7 -3 4 -6
-4 -4 -17 0 -29 8 -22 15 -23 14 -23 -21 0 -20 7 -42 15 -49 13 -11 11 -11 -7
-2 -26 12 -31 3 -7 -14 14 -11 13 -12 -8 -13 -56 -1 -69 -4 -63 -13 4 -6 10
-8 15 -5 5 3 12 0 16 -6 4 -7 3 -9 -4 -5 -5 3 -13 0 -15 -6 -4 -10 -6 -10 -6
0 -1 6 -5 12 -11 12 -5 0 -7 -7 -4 -15 6 -13 -6 -20 -28 -16 -5 0 -7 -2 -7 -7
3 -19 -2 -33 -11 -27 -6 3 -7 -1 -4 -10 5 -11 2 -14 -12 -9 -15 5 -16 4 -4 -4
10 -8 18 -8 27 0 8 6 16 8 19 5 3 -3 -4 -11 -16 -17 -16 -9 -19 -15 -10 -25 8
-10 8 -15 0 -20 -6 -4 -14 -4 -17 -1 -10 10 -30 -38 -21 -50 5 -7 3 -14 -5
-17 -10 -4 -13 2 -11 18 1 13 5 28 8 33 3 5 -1 9 -9 9 -8 0 -14 -3 -13 -6 2
-19 -3 -31 -11 -26 -5 3 -13 1 -16 -5 -4 -6 -3 -9 2 -8 4 2 8 -1 8 -7 0 -5 -4
-9 -10 -7 -5 2 -7 0 -3 -4 4 -4 2 -14 -5 -22 -6 -9 -7 -13 -2 -10 6 4 17 3 24
-1 9 -6 10 -11 2 -15 -6 -4 -11 -3 -11 3 0 5 -11 8 -25 5 -15 -3 -32 2 -41 11
-9 8 -23 15 -32 15 -9 0 -35 7 -57 15 -22 8 -77 14 -121 15 -78 0 -83 -1 -111
-30 -24 -24 -29 -38 -27 -63 3 -25 1 -29 -7 -17 -8 11 -12 12 -16 2 -2 -6 -9
-9 -15 -6 -6 4 -1 13 13 21 l24 14 -28 -6 c-21 -4 -27 -2 -21 6 4 7 3 9 -4 5
-5 -3 -12 0 -15 6 -3 7 -4 3 -4 -9 1 -12 6 -19 12 -16 5 4 -1 -6 -14 -20 -13
-15 -27 -24 -31 -22 -4 2 -7 -1 -8 -8 -1 -7 -4 -27 -8 -44 -5 -29 -1 -37 37
-74 48 -46 82 -62 113 -53 20 6 20 5 2 -8 -10 -8 -19 -29 -21 -48 -1 -20 -11
-41 -24 -51 -29 -24 -37 -69 -17 -107 9 -17 16 -33 16 -36 0 -2 -33 -10 -72
-16 -40 -7 -79 -17 -85 -22 -7 -6 -13 -8 -13 -5 0 4 -20 -2 -45 -13 l-45 -19
0 27 c0 45 -22 65 -71 68 -23 1 -48 -3 -54 -10 -19 -19 -35 -53 -35 -75 0 -24
43 -74 55 -63 5 4 5 1 1 -6 -4 -7 -11 -10 -16 -7 -5 3 -18 -3 -28 -13 -19 -19
-20 -19 -33 -1 -17 25 -32 3 -17 -25 10 -18 9 -19 -3 -9 -17 14 -41 12 -61 -5
-8 -6 -17 -9 -20 -7 -3 3 -4 -5 -3 -17 1 -13 3 -23 5 -23 1 0 3 -9 4 -21 2
-15 -3 -20 -18 -20 -13 1 -20 -4 -18 -13 2 -8 -3 -11 -12 -8 -9 4 -18 2 -20
-2 -3 -5 5 -8 17 -7 12 1 21 7 20 14 -2 7 4 9 14 5 11 -4 13 -8 5 -11 -7 -2
-9 -9 -6 -14 4 -7 2 -8 -4 -4 -12 7 -14 -2 -15 -51 0 -13 -4 -23 -9 -23 -6 0
-8 6 -5 13 3 8 -1 14 -8 14 -10 0 -11 -5 -4 -19 9 -16 6 -22 -12 -20 -3 1 -6
-5 -6 -12 0 -7 6 -13 13 -13 7 0 10 5 7 10 -4 6 -1 7 7 2 17 -10 -29 -47 -50
-40 -11 4 -10 1 2 -8 10 -8 14 -18 10 -22 -4 -5 -1 -5 6 -1 7 4 9 12 6 18 -5
7 -2 8 6 3 8 -5 11 -4 7 2 -3 5 0 10 8 10 10 0 12 -4 5 -12 -5 -7 -6 -16 -2
-20 4 -5 1 -5 -5 -1 -8 4 -13 1 -13 -8 0 -9 5 -16 12 -16 6 0 8 -3 5 -6 -4 -4
-13 -1 -21 5 -11 9 -16 9 -22 0 -5 -8 -3 -9 6 -4 10 6 12 4 6 -11 -4 -10 -8
-23 -9 -29 -1 -5 -6 -14 -12 -18 -5 -5 0 -5 13 -2 31 9 28 -10 -8 -41 -23 -21
-27 -30 -20 -45 13 -24 13 -32 -2 -23 -7 5 -8 3 -4 -5 6 -9 12 -9 25 3 20 18
31 20 31 6 0 -5 -5 -9 -12 -7 -7 1 -12 -5 -13 -13 0 -8 -8 -14 -16 -12 -11 1
-16 -5 -15 -20 1 -13 -2 -29 -7 -35 -5 -7 -6 -13 -1 -13 5 0 3 -4 -4 -9 -11
-7 -11 -9 1 -14 11 -4 15 0 12 14 -4 20 9 26 20 9 3 -5 1 -10 -5 -10 -6 0 -9
-4 -5 -9 3 -5 0 -13 -6 -17 -8 -4 -7 -9 2 -16 11 -8 11 -9 -1 -5 -8 2 -14 10
-13 16 3 13 -13 15 -21 2 -3 -5 1 -12 10 -15 8 -3 12 -10 9 -16 -4 -6 -12 -7
-18 -4 -7 4 -9 4 -5 -1 4 -4 2 -15 -5 -23 -10 -13 -9 -14 3 -7 8 6 20 10 25
10 6 1 9 6 8 13 -2 7 1 12 6 12 6 0 9 -9 8 -19 0 -11 -5 -17 -9 -15 -4 3 -8 0
-8 -6 0 -6 -4 -9 -8 -6 -5 3 -9 -2 -9 -10 0 -8 6 -13 14 -10 7 3 13 1 13 -4 0
-6 -9 -10 -19 -10 -11 0 -23 -4 -26 -10 -3 -6 1 -7 10 -4 11 5 14 2 8 -12 -5
-12 -3 -15 6 -9 10 6 11 2 6 -15 -4 -13 -3 -20 2 -17 5 4 10 0 10 -7 0 -9 -9
-13 -26 -10 l-26 4 25 -16 25 -15 -27 5 c-15 4 -29 2 -32 -2 -5 -8 8 -12 49
-13 20 0 20 0 1 -14 -14 -10 -23 -12 -32 -4 -8 7 -14 6 -20 -2 -4 -7 -3 -9 3
-6 6 4 13 0 16 -8 4 -10 1 -12 -11 -9 -9 3 -6 -2 8 -10 25 -15 22 -19 -15 -17
-15 0 -16 -1 -5 -7 22 -11 25 -36 3 -28 -16 5 -16 4 1 -9 25 -19 29 -55 7 -48
-9 2 -6 -2 7 -9 12 -8 20 -17 16 -21 -4 -4 -13 -2 -20 4 -8 7 -14 6 -20 -2 -4
-7 -3 -9 4 -5 6 3 16 -2 21 -13 14 -26 14 -31 -1 -27 -7 1 -10 1 -5 -1 4 -3 7
-9 7 -14 0 -6 -4 -8 -8 -5 -4 2 -8 -6 -8 -20 0 -13 4 -24 9 -24 5 0 6 7 3 16
-3 9 -2 12 4 9 6 -4 10 -3 9 2 -3 20 2 30 17 30 14 0 14 -2 -2 -14 -10 -7 -15
-13 -11 -13 4 0 2 -10 -5 -22 -7 -13 -12 -30 -13 -39 0 -9 -6 -23 -12 -31 -7
-8 -9 -18 -5 -22 4 -4 7 -24 7 -44 0 -31 3 -36 19 -34 17 3 18 2 7 -12 -8 -9
-10 -16 -5 -16 5 0 2 -5 -6 -10 -9 -6 -10 -10 -3 -10 7 0 16 8 22 17 5 10 13
14 18 9 4 -5 2 -11 -4 -13 -7 -3 -13 -11 -13 -19 0 -9 -4 -12 -10 -9 -6 4 -7
-1 -3 -11 5 -15 9 -14 30 10 13 15 23 24 23 21 0 -19 -48 -60 -67 -59 -12 1
-20 -2 -17 -7 2 -4 12 -5 20 -2 14 5 15 3 5 -18 -10 -19 -6 -18 18 9 38 40 40
33 5 -14 -14 -18 -31 -31 -38 -28 -6 3 -3 -1 6 -9 10 -8 18 -17 18 -20 0 -4
-8 -3 -18 0 -16 6 -16 6 0 -10 18 -18 33 -23 23 -8 -3 5 0 13 6 17 8 4 9 3 5
-4 -4 -7 -2 -12 3 -12 6 0 11 -5 11 -11 0 -5 -4 -7 -10 -4 -6 3 -11 -5 -11
-19 -3 -51 -4 -61 -13 -75 -6 -10 -5 -12 2 -7 7 4 12 2 12 -4 0 -6 5 -8 11 -4
6 3 7 9 3 13 -5 3 -10 13 -12 21 -2 11 2 10 12 -4 11 -14 12 -24 5 -37 -8 -15
-6 -19 6 -19 9 0 13 -5 10 -10 -4 -6 -11 -7 -17 -4 -7 5 -8 2 -3 -6 6 -10 3
-12 -13 -8 -12 4 -20 2 -16 -3 3 -5 13 -9 22 -9 15 0 15 -2 2 -10 -8 -5 -10
-10 -4 -10 17 0 12 -30 -5 -31 -13 0 -12 -2 2 -8 10 -4 18 -10 18 -14 -2 -21
0 -28 8 -23 4 3 17 -1 27 -9 10 -8 14 -15 8 -15 -5 0 -15 5 -22 12 -9 9 -12 9
-12 -1 0 -9 -6 -7 -17 6 -10 10 -15 14 -11 8 4 -7 5 -15 1 -18 -6 -6 11 -11
30 -8 4 0 7 -4 7 -10 0 -6 9 -9 20 -6 11 3 18 1 14 -4 -3 -5 -12 -9 -20 -9 -8
0 -12 -4 -9 -10 4 -6 -1 -7 -10 -3 -15 5 -15 3 -4 -16 8 -11 17 -21 22 -21 4
0 5 4 2 10 -4 6 1 7 11 3 14 -5 13 -8 -9 -19 -28 -15 -41 -40 -25 -50 7 -4 8
-3 4 4 -11 18 10 14 25 -5 10 -11 10 -14 2 -9 -10 5 -11 1 -4 -17 6 -14 7 -28
3 -32 -4 -4 4 -5 18 -1 14 3 19 3 13 0 -10 -4 -9 -9 2 -21 8 -8 15 -20 15 -26
0 -7 -5 -4 -11 6 -6 9 -15 14 -21 11 -7 -4 -8 -2 -4 4 4 7 2 12 -3 12 -17 0
-13 -18 9 -40 10 -10 15 -22 10 -25 -5 -3 -11 -1 -15 5 -3 5 -11 10 -18 10 -6
0 -1 -7 11 -16 12 -8 20 -21 16 -27 -3 -7 2 -3 12 8 15 18 16 18 10 2 -3 -10
-6 -21 -6 -23 0 -2 -6 -4 -14 -4 -8 0 -18 -5 -22 -11 -4 -7 0 -9 12 -5 11 3
26 1 34 -5 13 -10 13 -10 0 -6 -11 3 -15 -4 -15 -29 0 -30 2 -32 13 -17 10 14
14 15 25 3 9 -10 9 -12 -1 -6 -6 4 -12 2 -12 -3 0 -6 6 -11 13 -11 9 0 9 -2
-1 -9 -16 -9 -15 -20 1 -40 9 -12 9 -13 0 -7 -7 4 -13 2 -13 -3 0 -6 5 -11 11
-11 6 0 8 -12 6 -29 -4 -24 -2 -29 11 -24 15 6 15 4 -1 -14 -11 -13 -14 -23
-8 -27 6 -4 8 -14 5 -24 -5 -14 -4 -14 4 -3 6 8 9 23 7 33 -2 11 0 16 6 12 6
-3 8 -9 4 -12 -3 -3 4 -11 16 -17 19 -11 19 -13 5 -18 -10 -4 -15 -3 -11 3 3
6 1 10 -5 10 -8 0 -10 -9 -6 -24 4 -18 1 -28 -11 -35 -24 -14 -7 -14 18 0 11
5 17 14 14 19 -3 5 -1 11 4 14 5 4 8 -2 7 -11 -2 -10 2 -22 8 -26 7 -6 4 -7
-7 -3 -9 3 -17 1 -17 -4 0 -6 -8 -10 -17 -11 -14 0 -15 -2 -3 -6 26 -10 30
-27 13 -53 -13 -20 -14 -23 -1 -13 8 7 18 10 22 6 8 -8 1 41 -8 56 -9 14 23 7
37 -9 10 -12 9 -12 -6 -1 -15 12 -17 11 -14 -6 1 -10 13 -34 27 -52 l23 -34
-22 -18 c-15 -12 -18 -19 -9 -19 8 0 19 5 25 11 8 8 13 7 18 -2 5 -7 4 -10 -3
-5 -6 3 -13 2 -16 -3 -3 -5 3 -11 14 -14 11 -3 19 -11 18 -19 -2 -7 4 -12 12
-10 8 2 12 0 8 -4 -4 -4 -3 -13 4 -21 8 -11 7 -12 -5 -7 -15 5 -22 16 -26 39
-3 12 -41 28 -49 20 -3 -3 0 -5 7 -5 7 0 9 -5 5 -12 -4 -7 -3 -8 4 -4 18 11
14 -5 -5 -19 -13 -9 -13 -14 -3 -20 8 -5 11 -4 7 2 -4 6 0 13 8 17 18 7 20
-15 3 -32 -9 -9 -9 -12 0 -12 7 0 12 5 12 10 0 6 5 10 11 10 6 0 8 -9 4 -20
-5 -16 -3 -19 11 -13 11 4 15 3 10 -5 -3 -6 -2 -13 4 -17 6 -4 7 -12 4 -18 -5
-8 -3 -8 7 0 17 17 32 17 23 1 -5 -10 -4 -10 6 -1 10 9 18 6 39 -13 14 -13 31
-24 38 -24 6 0 10 -8 8 -17 -2 -10 -4 -18 -5 -18 -1 0 -3 -13 -5 -29 -6 -47
18 -81 80 -110 70 -33 113 -34 145 -2 25 23 25 23 60 6 19 -10 40 -19 45 -20
6 -1 19 -6 30 -10 11 -4 46 -17 78 -29 72 -26 107 -27 135 -1 22 20 29 59 14
74 -4 4 -7 11 -7 14 0 4 -16 39 -34 79 -18 40 -33 75 -31 79 1 4 -2 10 -7 13
-9 6 -20 32 -77 181 -40 106 -109 328 -122 393 -2 10 -6 27 -9 37 -3 10 -8 27
-10 37 -2 10 -10 47 -19 83 -62 271 -85 457 -92 745 -7 260 6 511 36 725 23
165 46 299 60 350 65 237 72 263 78 280 3 8 5 18 4 22 -1 4 5 23 13 42 8 19
15 49 15 66 0 16 4 30 9 30 14 0 33 56 30 88 -3 22 3 36 19 50 12 11 22 25 22
32 0 6 6 10 13 7 6 -2 11 -11 11 -20 -1 -9 2 -14 7 -11 5 3 9 -2 9 -10 0 -9
-3 -15 -8 -15 -19 3 -22 -3 -11 -23 6 -12 13 -34 14 -49 2 -21 -1 -26 -13 -21
-11 4 -13 2 -7 -8 6 -9 4 -11 -5 -5 -11 7 -10 10 1 19 17 14 23 36 8 36 -5 0
-8 4 -4 9 3 5 2 12 -3 15 -5 3 -9 0 -10 -7 -1 -7 -3 -23 -5 -37 -2 -15 -8 -24
-17 -22 -10 1 -8 -3 4 -13 11 -8 14 -15 8 -15 -7 0 -12 -12 -12 -27 0 -43 -3
-64 -9 -57 -10 9 -8 28 4 36 6 5 5 8 -3 8 -7 0 -10 5 -6 12 4 7 3 8 -5 4 -6
-4 -9 -12 -6 -17 4 -5 0 -9 -7 -9 -8 0 -9 -3 -3 -8 13 -9 16 -42 4 -42 -5 0
-9 -8 -9 -17 0 -16 -2 -16 -11 -3 -9 13 -10 12 -5 -2 3 -10 1 -20 -5 -23 -15
-10 1 -27 20 -21 12 5 12 3 -3 -9 -10 -8 -24 -16 -30 -18 -8 -3 -7 -9 2 -19 8
-11 9 -18 3 -22 -16 -10 -1 -36 21 -36 17 0 18 -3 8 -15 -7 -8 -17 -12 -24 -9
-6 3 -3 -1 6 -9 10 -8 14 -17 10 -21 -4 -4 -1 -6 7 -4 7 2 16 -3 19 -11 3 -9
0 -11 -8 -6 -7 4 -4 -4 5 -19 10 -14 14 -26 10 -26 -4 0 -3 -6 2 -12 5 -7 10
-26 11 -41 3 -41 17 -63 52 -77 16 -7 30 -17 30 -22 0 -5 5 -6 10 -3 14 9 58
-27 52 -43 -2 -6 1 -12 7 -12 6 0 10 3 10 8 -4 23 3 34 17 28 9 -3 12 -2 9 5
-4 6 -13 8 -19 6 -7 -3 -19 -1 -27 4 -12 7 -12 9 1 10 8 1 18 1 23 0 4 0 7 4
7 11 0 15 37 -28 67 -79 14 -24 29 -43 34 -43 5 0 9 -5 9 -11 0 -15 47 -59 63
-59 50 1 79 36 90 110 8 47 18 83 28 96 5 6 6 14 2 17 -3 4 -1 7 6 7 8 0 10
-7 5 -22 -6 -20 -5 -21 9 -10 10 9 17 10 22 2 4 -6 1 -9 -7 -8 -23 5 -17 -74
7 -90 15 -10 16 -12 3 -8 -10 3 -20 0 -24 -6 -4 -7 -3 -8 4 -4 7 4 12 1 12 -8
0 -9 5 -16 11 -16 5 0 7 5 3 12 -4 7 -3 8 4 4 6 -4 9 -13 6 -21 -4 -8 -10 -13
-14 -10 -5 3 -11 2 -14 -3 -2 -4 4 -8 14 -9 11 -1 22 2 25 8 8 12 25 12 25 -1
0 -5 -5 -9 -12 -7 -7 1 -12 -2 -13 -8 0 -5 -3 -15 -7 -21 -4 -6 -1 -19 6 -30
12 -16 12 -20 -3 -32 -9 -7 -10 -11 -4 -7 7 3 13 1 13 -4 0 -6 5 -11 11 -11 5
0 7 4 4 10 -3 5 0 7 9 4 12 -5 13 -9 3 -19 -7 -7 -15 -11 -19 -9 -4 2 -10 -1
-14 -7 -4 -7 -3 -9 4 -5 16 10 27 -15 11 -26 -12 -8 -11 -9 1 -5 8 2 15 12 15
22 0 10 6 20 13 21 7 1 8 0 3 -2 -5 -3 -7 -14 -4 -24 3 -11 9 -18 13 -15 11 7
6 -22 -5 -32 -4 -4 -5 -3 -1 4 10 18 -10 25 -25 7 -10 -12 -10 -15 1 -12 8 2
14 -2 15 -9 0 -7 9 -19 20 -28 14 -10 15 -13 4 -9 -10 3 -20 0 -24 -6 -3 -6
-3 -10 2 -9 19 3 33 -2 33 -12 0 -5 -4 -8 -9 -4 -6 3 -8 -4 -6 -16 5 -25 24
-41 42 -34 7 2 10 -2 6 -10 -4 -11 -10 -12 -23 -5 -25 13 -40 12 -18 -1 10 -5
18 -15 18 -20 0 -6 -4 -7 -10 -4 -5 3 -10 1 -10 -4 0 -14 13 -14 27 0 8 8 11
3 9 -20 -3 -41 9 -60 26 -43 15 15 28 16 28 1 0 -5 -5 -7 -12 -3 -6 4 -8 3 -4
-4 3 -5 3 -12 -1 -15 -5 -2 -1 -2 7 1 8 2 21 5 28 5 6 0 12 5 12 10 0 6 3 7 6
4 4 -4 1 -13 -6 -22 -7 -9 -10 -18 -6 -22 3 -3 6 -1 6 5 0 7 9 12 21 12 13 0
18 4 13 12 -5 7 -3 8 6 3 10 -6 9 -11 -6 -23 -14 -11 -15 -13 -3 -9 9 3 34 -6
54 -20 48 -33 105 -50 192 -58 37 -3 115 -10 173 -15 58 -5 143 -12 190 -15
47 -3 120 -8 163 -12 l77 -6 11 -39 c15 -56 74 -73 137 -39 19 10 23 9 28 -4
4 -9 12 -14 18 -12 7 3 20 -1 31 -9 10 -8 14 -14 9 -14 -6 0 -15 5 -22 12 -9
9 -12 9 -12 0 0 -7 5 -12 11 -12 5 0 7 -4 4 -10 -4 -6 3 -6 21 0 25 10 26 9
13 -6 -13 -16 -12 -16 11 -4 24 13 24 12 10 -5 -9 -11 -10 -16 -2 -11 6 4 12
2 12 -3 0 -6 5 -11 11 -11 5 0 7 4 4 10 -3 6 1 7 9 4 20 -8 20 -14 -1 -31 -14
-10 -14 -13 -3 -11 8 2 21 10 28 18 8 8 11 10 8 4 -5 -10 4 -16 44 -28 20 -6
68 -41 65 -47 -3 -4 2 -10 11 -13 10 -4 13 -2 9 7 -4 6 0 4 8 -5 8 -10 18 -14
23 -10 4 4 2 -1 -5 -10 -8 -11 -9 -18 -3 -18 6 0 14 4 17 10 6 10 75 -29 75
-43 0 -5 -13 1 -29 13 -23 15 -31 17 -37 8 -4 -7 -4 -10 1 -6 4 4 20 -1 35
-12 20 -14 30 -16 38 -8 9 9 12 8 12 -5 0 -9 5 -17 11 -17 5 0 7 5 3 11 -3 6
5 3 20 -6 30 -20 35 -30 7 -15 -11 5 -22 6 -25 2 -5 -8 8 -12 47 -13 20 0 23
-15 5 -22 -7 -2 0 -2 15 0 18 3 35 -2 48 -13 10 -9 19 -14 19 -9 0 4 7 2 15
-5 9 -7 14 -19 11 -26 -3 -8 0 -11 10 -7 12 4 18 -6 16 -28 -1 -3 6 -6 14 -6
10 0 11 4 4 11 -5 5 -10 14 -10 20 0 5 9 -1 20 -14 11 -12 17 -27 13 -33 -3
-6 -1 -7 6 -3 6 4 9 11 6 16 -3 5 -1 11 4 14 5 4 8 -6 6 -21 -2 -24 -1 -25 10
-10 11 15 13 16 19 2 3 -8 0 -15 -6 -15 -6 0 -8 -3 -5 -6 4 -4 13 -1 22 6 8 7
15 8 15 3 0 -11 50 -38 65 -34 5 1 1 -8 -10 -20 l-20 -22 27 17 c26 17 27 17
38 -6 11 -22 10 -22 -4 -4 -13 16 -16 17 -16 4 0 -19 27 -32 35 -17 4 5 18 1
34 -11 16 -10 30 -18 32 -15 2 2 22 -10 44 -27 22 -17 33 -28 24 -25 -12 4
-15 -2 -15 -28 1 -20 5 -31 11 -27 5 4 21 7 33 7 20 1 21 -1 8 -10 -12 -9 -13
-15 -3 -25 10 -12 9 -12 -5 -1 -10 7 -15 18 -11 23 3 6 0 9 -8 6 -8 -3 -15
-10 -15 -16 -1 -7 -2 -20 -3 -29 -1 -16 -3 -16 -11 -3 -8 12 -10 12 -11 -5 0
-13 -2 -15 -6 -6 -3 8 1 19 9 25 14 10 14 13 0 25 -13 12 -14 12 -10 0 6 -17
-18 -43 -31 -34 -5 3 -13 0 -17 -6 -4 -8 -3 -9 4 -5 7 4 12 2 12 -4 0 -6 4 -9
8 -6 5 3 9 -1 9 -9 0 -8 -4 -12 -9 -9 -7 5 -12 -10 -9 -28 0 -5 -4 -8 -9 -8
-12 0 -13 6 -1 29 8 13 5 17 -12 18 -17 2 -19 0 -7 -7 13 -8 13 -11 1 -19 -7
-5 -10 -14 -6 -21 6 -9 3 -9 -14 0 -36 19 -80 2 -125 -47 -79 -87 -119 -128
-112 -115 4 7 2 20 -5 28 -6 8 -9 17 -5 21 3 3 6 1 6 -5 0 -7 7 -12 16 -12 14
0 14 2 -1 16 -12 13 -13 19 -4 30 7 8 9 17 5 21 -3 3 -6 1 -6 -7 0 -10 -3 -10
-14 -1 -10 8 -16 9 -21 1 -6 -10 1 -14 19 -11 5 1 3 -6 -4 -16 -22 -28 -24
-29 -17 -10 4 9 2 17 -3 17 -6 0 -10 -4 -10 -10 0 -5 -8 -7 -17 -4 -17 5 -17
5 0 -6 23 -15 22 -30 -4 -30 -13 0 -18 -4 -13 -12 4 -7 4 -10 -1 -6 -4 4 -14
1 -21 -7 -17 -17 -18 -29 -2 -19 7 5 8 3 3 -6 -6 -10 -4 -12 9 -7 11 4 15 3
11 -4 -4 -6 -13 -8 -20 -5 -8 3 -16 2 -18 -2 -2 -4 -2 -1 -1 6 2 6 -1 12 -6
12 -6 0 -10 -8 -10 -17 0 -10 -7 -27 -15 -37 -8 -10 -12 -23 -8 -29 3 -6 1 -7
-6 -3 -9 6 -8 14 4 33 9 13 14 30 11 36 -2 7 -5 4 -5 -6 -1 -11 -6 -15 -13
-11 -6 4 -8 3 -5 -2 8 -13 -9 -39 -25 -39 -8 0 -12 -9 -10 -22 2 -12 -3 -25
-9 -29 -9 -5 -10 -2 -6 10 4 10 3 15 -3 11 -14 -9 -8 -37 10 -53 13 -11 11
-11 -7 -2 -13 6 -23 16 -23 23 -1 13 -24 -22 -25 -38 -1 -5 -6 -9 -13 -8 -7 2
-11 0 -10 -5 3 -16 -15 -42 -26 -36 -6 3 -3 -1 6 -8 15 -13 15 -15 -4 -27 -11
-7 -17 -18 -14 -27 3 -9 2 -12 -5 -9 -6 4 -8 13 -5 21 3 7 2 15 -2 18 -4 3 -9
-5 -9 -17 -1 -12 -7 -23 -13 -25 -5 -2 -10 -8 -10 -13 0 -6 5 -7 10 -4 6 3 10
1 10 -4 0 -6 -6 -11 -12 -11 -9 0 -8 -4 2 -11 13 -9 13 -10 0 -6 -8 2 -15 9
-15 15 0 5 -4 14 -9 19 -5 4 -7 -4 -4 -19 6 -31 -26 -67 -53 -63 -12 2 -15 -3
-11 -18 4 -16 2 -19 -12 -14 -11 5 -15 3 -10 -5 5 -8 2 -9 -9 -5 -10 4 -17 2
-17 -4 0 -6 -7 -8 -16 -5 -9 3 -12 2 -9 -4 8 -12 -53 -4 -70 9 -5 5 -143 81
-305 169 -162 87 -319 173 -348 191 -29 17 -57 31 -62 31 -6 0 -10 5 -10 10 0
20 -78 11 -99 -11 -20 -22 -33 -87 -18 -92 5 -1 -3 -8 -19 -15 -23 -11 -26
-11 -16 1 10 11 7 13 -17 12 -20 -1 -28 2 -24 11 2 7 11 10 19 7 8 -3 14 -1
14 5 0 16 -31 8 -45 -12 -8 -11 -15 -13 -20 -7 -3 6 -2 11 3 11 5 0 12 9 15
20 4 16 2 18 -13 10 -9 -5 -20 -7 -23 -3 -4 3 -4 -5 -1 -18 3 -13 7 -35 8 -48
1 -14 8 -26 16 -29 13 -3 13 -2 0 8 -10 8 -11 10 -2 8 8 -2 12 -6 10 -10 -6
-13 34 -46 50 -41 15 4 15 3 2 -6 -11 -7 -20 -5 -35 8 -19 18 -59 26 -49 10 2
-5 11 -6 19 -3 12 5 42 -33 36 -46 -1 -2 3 -6 11 -8 9 -2 8 0 -2 7 -9 7 -10
11 -3 11 18 0 27 -21 13 -30 -8 -5 -9 -10 -2 -14 6 -3 13 0 15 6 5 13 11 -18
7 -37 -1 -5 4 -5 10 1 9 9 9 17 1 32 -14 26 -14 32 -1 32 6 0 9 -3 8 -7 -1 -5
2 -19 6 -32 6 -18 10 -20 17 -10 6 10 8 8 6 -8 -1 -17 -4 -19 -14 -11 -8 7
-13 7 -13 0 0 -13 29 -24 42 -16 6 4 8 -2 3 -17 -5 -19 -4 -21 4 -9 10 13 11
13 11 0 0 -13 1 -13 10 0 8 13 10 12 10 -2 0 -10 -5 -18 -12 -18 -6 0 -8 -3
-5 -6 10 -10 38 17 30 29 -3 6 -1 7 5 3 8 -5 9 -13 3 -24 -6 -12 -5 -24 5 -37
8 -11 14 -14 14 -6 0 10 3 11 13 2 8 -6 17 -8 21 -4 3 4 14 8 22 9 9 1 13 0
10 -3 -6 -6 31 -42 46 -44 4 -1 13 -2 19 -3 7 0 15 -10 20 -21 4 -11 8 -14 8
-7 1 9 9 8 29 -5 15 -10 30 -21 33 -26 3 -5 9 -8 13 -7 6 2 41 -10 91 -30 28
-12 119 -45 125 -46 47 -6 120 -28 120 -35 0 -5 8 -9 17 -9 24 0 3 -18 -27
-24 -14 -2 -26 -5 -27 -7 -2 -1 -7 -3 -13 -4 -5 -1 -13 -4 -17 -5 -5 -1 -11
-2 -15 -1 -4 0 -10 -9 -13 -20 -5 -15 -10 -17 -20 -9 -9 8 -15 8 -20 0 -3 -6
-11 -7 -17 -4 -6 4 -8 2 -4 -4 3 -6 2 -13 -4 -17 -5 -3 -10 -2 -10 3 0 5 -6 9
-14 9 -11 0 -12 -4 -3 -18 8 -14 9 -21 0 -30 -8 -8 -13 -7 -18 2 -5 8 -4 10 3
5 7 -4 12 -1 12 9 0 11 -5 15 -16 11 -10 -4 -13 -2 -8 7 4 7 3 9 -2 4 -5 -5
-10 -26 -10 -47 -2 -34 0 -37 13 -25 18 19 20 19 20 0 0 -8 -4 -12 -9 -9 -4 3
-8 -2 -8 -10 0 -9 5 -16 10 -16 6 0 10 -4 10 -10 0 -5 -8 -7 -17 -4 -14 5 -15
4 -4 -4 8 -6 22 -9 32 -7 10 2 20 -3 23 -11 4 -12 2 -12 -14 -4 -14 8 -20 8
-20 0 0 -6 -4 -8 -10 -5 -6 3 -10 1 -10 -5 0 -7 8 -9 22 -4 19 6 21 4 12 -7
-16 -21 -14 -56 4 -71 13 -11 15 -11 8 2 -4 8 2 4 13 -10 27 -32 26 -43 -1
-34 -19 6 -19 4 6 -21 15 -15 25 -33 22 -41 -3 -7 4 -20 15 -27 20 -14 20 -15
0 -20 -15 -3 -18 -1 -14 12 4 14 3 14 -6 1 -9 -12 -10 -8 -6 16 4 24 1 34 -11
38 -13 5 -14 3 -7 -6 6 -7 9 -22 7 -33 -1 -10 2 -25 7 -32 6 -7 8 -17 4 -23
-4 -6 -3 -10 2 -9 4 1 19 -2 32 -8 l25 -10 -25 -8 -24 -8 23 -4 c12 -2 22 -9
22 -14 0 -6 -3 -8 -7 -6 -5 3 -15 -2 -23 -11 -13 -14 -12 -15 3 -9 11 4 17 1
17 -9 0 -9 -5 -12 -12 -8 -9 5 -9 2 1 -9 7 -9 21 -17 30 -17 14 0 14 -2 1 -10
-9 -6 -20 -5 -30 3 -13 10 -13 10 -3 -4 7 -9 11 -18 8 -21 -3 -2 3 -5 13 -5 9
0 20 5 24 11 5 8 8 7 8 -2 0 -7 -6 -15 -14 -18 -16 -6 -15 -36 1 -41 6 -2 15
1 19 8 5 9 2 10 -9 6 -23 -9 -21 0 2 13 16 8 19 7 16 -8 -2 -9 -4 -18 -5 -19
-2 -2 -3 -6 -4 -10 -1 -5 -5 -13 -9 -20 -4 -6 -2 -15 4 -19 8 -5 9 -3 4 6 -5
9 -4 11 4 6 16 -11 2 -28 -18 -22 -9 4 -5 -2 9 -13 13 -11 28 -17 33 -14 5 3
4 -4 -2 -16 -14 -25 -23 -28 -15 -3 5 14 4 14 -4 2 -7 -9 -7 -19 -2 -26 6 -6
6 -15 2 -19 -4 -5 -1 -5 6 -1 7 4 9 12 6 18 -4 7 -2 8 4 4 15 -9 15 -12 -4
-30 -10 -10 -11 -16 -4 -16 7 0 9 -7 6 -16 -4 -10 -2 -13 6 -8 7 5 9 2 5 -9
-4 -10 -2 -14 6 -11 8 3 13 -9 14 -33 1 -21 7 -39 12 -41 6 -2 11 -11 11 -20
0 -15 -2 -15 -10 -2 -7 11 -10 12 -10 2 0 -8 9 -16 20 -19 21 -5 28 -33 9 -33
-5 0 -7 5 -4 11 4 6 1 10 -6 8 -29 -3 -40 2 -98 51 -33 27 -62 50 -65 50 -2 0
-21 16 -42 35 -20 19 -45 35 -55 35 -11 0 -19 6 -19 13 -1 23 -35 57 -66 63
-43 8 -67 -20 -90 -102 -11 -40 -20 -60 -25 -52 -4 6 -6 15 -4 19 3 3 -5 6
-16 5 -11 0 -24 -8 -29 -16 -5 -8 -10 -10 -10 -4 0 5 6 16 13 23 10 11 9 13
-6 8 -10 -4 -16 -3 -12 2 3 5 2 11 -2 14 -5 2 -1 2 7 -1 35 -10 53 -11 28 -1
-16 6 -28 14 -28 18 0 4 -7 8 -15 8 -8 0 -12 -4 -9 -9 3 -4 -1 -8 -8 -8 -9 0
-9 -3 -2 -8 14 -10 25 -40 16 -46 -5 -3 -14 -1 -22 5 -10 6 -11 9 -2 9 6 0 12
5 12 11 0 8 -5 7 -16 -2 -15 -12 -14 -15 5 -30 17 -14 18 -18 5 -23 -8 -3 -17
1 -20 9 -4 8 -9 13 -13 11 -4 -3 -13 -1 -20 4 -11 6 -9 10 8 19 25 14 28 57 7
86 -19 26 -83 26 -103 -1 -27 -36 2 -104 44 -104 4 0 -3 -9 -15 -20 -47 -44
-10 -115 55 -108 28 3 30 2 21 -15 -7 -14 -7 -17 1 -13 7 4 11 -1 11 -14 0
-11 7 -32 16 -46 12 -17 13 -24 4 -22 -7 2 -15 -3 -17 -9 -3 -7 3 -13 14 -14
11 0 13 -3 5 -6 -14 -5 -42 14 -42 28 0 5 5 8 11 7 6 -2 14 4 16 12 4 13 3 13
-6 0 -6 -8 -11 -11 -11 -6 0 6 -5 5 -12 -2 -8 -8 -8 -15 0 -24 6 -8 14 -29 17
-48 3 -19 11 -40 17 -47 11 -14 32 -7 22 8 -3 5 -10 7 -15 4 -5 -4 -9 -2 -9 4
0 5 9 9 19 8 14 -1 18 -7 15 -24 -3 -16 0 -21 9 -17 8 3 19 -1 25 -9 9 -11 8
-14 -3 -14 -8 0 -12 4 -9 9 3 4 -2 5 -11 2 -23 -9 -6 -19 38 -23 5 -1 5 -7 1
-13 -6 -9 -3 -9 9 0 17 15 38 8 36 -11 0 -9 -2 -9 -6 1 -2 6 -9 12 -14 12 -4
0 -6 -7 -3 -15 4 -8 15 -15 26 -15 13 0 18 -5 15 -14 -7 -18 49 -60 59 -44 5
7 3 8 -6 3 -9 -6 -11 -4 -5 5 5 9 4 11 -3 6 -8 -5 -10 -2 -6 8 3 9 10 16 16
16 5 0 7 -4 3 -9 -3 -5 -2 -12 3 -15 5 -3 7 -19 6 -36 -1 -17 1 -29 4 -25 4 4
7 14 7 22 0 9 6 17 13 19 7 1 8 0 2 -3 -18 -9 -11 -25 9 -18 11 3 24 -1 32
-12 13 -16 12 -17 -4 -4 -16 12 -20 12 -35 -2 -10 -11 -12 -17 -4 -17 7 0 12
5 12 12 0 16 13 1 16 -19 2 -9 10 -20 19 -25 8 -5 13 -13 10 -17 -2 -5 6 -7
18 -6 12 1 22 3 22 5 0 6 47 6 50 -1 3 -4 -6 -6 -20 -4 -20 2 -29 -4 -41 -26
l-14 -29 27 11 c15 5 32 13 38 17 6 4 3 0 -6 -9 -16 -14 -16 -16 0 -27 13 -10
11 -10 -7 -1 -13 6 -26 8 -30 5 -3 -3 0 -6 8 -6 10 0 10 -4 -1 -17 -13 -17
-13 -17 5 -3 18 14 19 13 13 -4 -7 -17 -6 -17 10 -5 15 12 16 12 10 -4 -4 -11
-3 -16 3 -12 14 9 12 -9 -3 -24 -10 -10 -9 -12 3 -9 8 2 14 -2 13 -7 -1 -6 8
-12 20 -12 20 -2 20 -1 4 8 -9 6 -14 15 -11 21 5 7 2 8 -6 3 -9 -5 -11 -4 -6
4 4 6 12 9 17 5 5 -3 7 -9 4 -14 -3 -4 2 -10 10 -14 8 -3 12 -12 9 -21 -4 -10
0 -15 11 -15 10 0 15 -6 12 -12 -2 -7 0 -22 5 -33 8 -19 8 -19 5 1 -4 19 20
45 40 44 5 0 0 -5 -9 -11 -32 -18 -22 -26 40 -31 13 -1 17 -18 4 -18 -4 0 -8
-10 -8 -23 0 -14 6 -23 16 -23 9 0 17 6 17 13 0 7 -4 10 -9 7 -4 -3 -8 0 -8 5
0 21 43 4 79 -31 44 -43 68 -56 118 -63 21 -3 44 -8 52 -11 8 -2 37 -7 65 -10
27 -2 56 -10 63 -16 7 -6 13 -8 13 -4 0 3 18 -5 40 -19 38 -24 47 -25 114 -19
72 6 172 -12 204 -38 6 -6 12 -8 12 -5 0 3 15 0 33 -8 44 -18 220 -22 275 -6
24 7 56 25 70 41 44 47 72 84 72 98 0 6 4 12 9 12 5 0 24 29 42 65 32 63 33
65 17 98 -16 33 -36 43 -128 62 -16 3 -86 29 -135 50 -107 45 -168 65 -184 60
-16 -5 -61 23 -61 38 0 4 19 11 43 17 23 6 51 15 62 19 11 5 38 13 60 18 22 6
79 22 128 37 130 39 237 70 387 111 74 20 171 48 215 61 164 48 291 85 325 94
19 5 67 19 105 31 39 11 77 22 85 24 8 2 43 10 76 19 34 9 80 16 103 16 73 0
107 72 59 122 -13 13 -28 34 -35 48 -10 20 -43 134 -58 200 -2 8 -17 62 -33
120 -17 58 -33 121 -38 140 -4 19 -9 40 -10 45 -2 6 -12 43 -23 83 l-19 73 23
9 c16 6 27 22 34 47 9 31 51 79 220 246 125 124 216 207 227 207 11 0 29 -7
40 -15 12 -8 24 -11 28 -8 3 3 6 1 6 -5 0 -5 30 -20 66 -32 36 -12 68 -28 71
-35 2 -8 12 -11 20 -8 11 4 14 2 9 -5 -4 -8 -2 -10 7 -6 8 3 21 -1 28 -9 15
-15 21 -17 45 -17 8 0 13 -4 9 -9 -3 -6 3 -8 14 -6 11 2 25 -3 32 -11 6 -8 17
-14 24 -14 19 0 66 -26 59 -33 -3 -3 3 -3 14 -1 10 3 26 -1 34 -10 9 -8 19
-12 23 -8 5 4 5 -2 1 -12 -5 -16 -4 -17 9 -6 11 9 15 9 15 1 0 -7 4 -9 10 -6
5 3 3 -9 -5 -28 -13 -31 -12 -34 3 -34 9 0 24 5 32 11 13 9 13 9 3 -5 -12 -15
-11 -48 3 -71 4 -6 3 -8 -4 -4 -6 3 -13 2 -17 -4 -3 -5 -1 -10 6 -10 7 0 5 -9
-7 -22 -10 -13 -12 -17 -4 -11 18 13 26 9 55 -27 15 -19 16 -21 3 -11 -15 11
-19 11 -24 -3 -5 -14 -9 -14 -23 -4 -14 12 -15 11 -2 -5 11 -13 17 -15 28 -6
11 10 12 9 7 -5 -3 -9 -11 -16 -17 -16 -6 0 -7 -3 -4 -6 4 -4 13 -1 22 6 9 7
18 10 22 6 3 -3 1 -6 -5 -6 -7 0 -12 -7 -12 -16 0 -9 -5 -12 -12 -8 -7 4 -8 3
-4 -5 4 -6 12 -9 17 -6 5 4 9 -2 9 -12 1 -20 24 -56 32 -48 2 3 5 -1 5 -8 0
-8 -6 -14 -13 -14 -7 0 -10 5 -7 10 3 6 1 7 -5 4 -11 -8 -11 -25 1 -44 4 -6 4
-18 1 -26 -7 -18 12 -32 22 -16 4 8 3 9 -4 5 -7 -4 -12 -3 -12 2 0 5 12 14 28
21 22 9 24 9 11 -1 -9 -7 -15 -26 -15 -41 1 -16 -3 -31 -8 -34 -5 -3 -6 -1 -2
5 3 6 2 13 -3 16 -7 5 -8 -8 -2 -32 1 -1 11 3 24 9 22 12 22 12 3 -10 -20 -22
-9 -30 12 -9 9 9 12 9 12 0 0 -7 -5 -12 -11 -12 -6 0 -9 -6 -6 -12 2 -7 9 -12
15 -11 6 2 9 -4 6 -12 -4 -8 1 -17 10 -21 9 -3 13 -11 9 -17 -3 -6 -1 -7 6 -3
6 4 9 11 6 16 -3 5 3 8 12 8 10 0 25 2 33 6 12 5 21 -6 37 -43 15 -37 28 -52
47 -57 25 -6 100 9 171 35 26 9 316 95 364 107 48 12 165 46 226 64 39 12 147
43 240 70 94 27 189 56 213 64 23 8 42 13 42 10 0 -2 8 0 18 5 11 6 30 12 43
15 13 3 38 9 54 13 17 5 37 9 45 8 8 0 18 3 21 8 4 5 9 5 11 1 3 -5 -9 -20
-26 -34 -17 -13 -25 -17 -17 -7 7 9 9 17 3 17 -14 0 -23 -28 -12 -35 6 -4 10
-11 10 -17 0 -6 -10 0 -21 13 -12 13 -19 17 -17 9 3 -8 -2 -24 -11 -35 -15
-18 -15 -19 2 -6 12 9 17 10 17 2 0 -6 -7 -14 -15 -17 -8 -4 -15 -13 -15 -21
0 -8 5 -11 12 -7 7 4 8 3 4 -5 -4 -6 -12 -9 -17 -6 -5 4 -22 -2 -38 -11 -27
-16 -28 -19 -13 -32 9 -7 11 -11 5 -7 -7 3 -13 1 -13 -5 0 -6 -4 -8 -10 -5 -5
3 -15 -5 -21 -19 -7 -14 -15 -23 -20 -21 -4 3 -10 1 -13 -4 -4 -5 0 -8 8 -7
15 2 47 31 41 38 -2 2 5 4 15 4 16 0 13 -5 -13 -28 -29 -25 -48 -33 -69 -29
-5 0 -7 -2 -7 -7 3 -19 -2 -33 -11 -27 -6 4 -7 -1 -3 -11 5 -13 3 -15 -7 -9
-9 5 -11 4 -6 -3 4 -7 2 -12 -3 -12 -6 0 -11 -5 -11 -12 0 -9 3 -9 12 0 15 15
28 15 28 0 0 -6 -3 -8 -7 -5 -3 4 -12 2 -19 -4 -15 -13 -7 -42 10 -32 6 4 5
-1 -3 -10 -16 -20 -17 -21 -19 -4 -2 26 -8 47 -17 54 -4 4 -5 3 -2 -3 7 -12
-26 -48 -35 -39 -2 3 -5 -2 -5 -10 0 -8 4 -12 8 -9 4 2 7 -5 6 -16 -1 -20 -17
-29 -17 -10 0 6 -5 10 -11 10 -5 0 -7 -5 -4 -10 6 -9 -8 -14 -28 -11 -4 1 -3
-8 3 -19 7 -13 7 -20 0 -20 -5 0 -10 6 -11 13 0 6 -4 2 -9 -10 -6 -16 -15 -21
-27 -17 -15 5 -16 4 -3 -5 8 -6 11 -11 5 -11 -5 0 -1 -8 10 -16 20 -16 19 -16
-4 -9 -17 5 -21 4 -16 -5 6 -9 2 -9 -15 0 -13 7 -20 8 -16 2 3 -6 2 -13 -4
-17 -5 -3 -10 -11 -10 -16 0 -6 4 -8 9 -5 5 4 7 -4 3 -16 -4 -16 -7 -18 -11
-7 -7 17 -32 24 -40 11 -3 -5 -15 -14 -26 -20 -19 -11 -19 -12 4 -9 13 1 25
-4 27 -11 1 -7 0 -8 -3 -2 -2 5 -9 7 -14 4 -6 -3 -5 -12 3 -22 11 -15 11 -15
-3 -4 -13 10 -21 10 -43 -2 -15 -8 -24 -16 -19 -19 5 -3 15 -2 23 4 20 12 30
11 30 -2 0 -5 -4 -8 -9 -4 -5 3 -16 -2 -24 -10 -18 -17 -31 -20 -22 -5 4 6 -3
9 -17 6 -15 -2 -22 -9 -20 -21 2 -9 -1 -14 -7 -11 -5 4 -12 2 -16 -4 -4 -6
-11 -7 -17 -4 -7 4 -8 2 -4 -4 4 -8 0 -12 -10 -12 -16 0 -16 -1 2 -16 10 -8
13 -12 5 -8 -9 4 -12 2 -9 -7 3 -8 11 -13 17 -12 6 2 11 -2 11 -8 0 -6 -6 -9
-12 -6 -7 2 -19 -3 -26 -12 -11 -14 -12 -13 -3 5 7 16 7 26 -3 40 -13 17 -14
16 -9 -9 6 -31 1 -34 -20 -12 -13 13 -16 13 -21 -1 -3 -8 -2 -13 2 -11 4 3 13
-2 21 -11 13 -13 11 -14 -15 -8 -27 6 -28 5 -10 -9 23 -17 14 -20 -16 -4 -15
8 -23 8 -32 -1 -8 -8 -7 -10 5 -5 9 3 22 -2 30 -12 13 -17 13 -17 -5 -3 -18
14 -19 13 -13 -3 4 -10 3 -16 -2 -12 -5 3 -13 -4 -16 -16 -4 -11 -9 -18 -12
-16 -2 3 0 15 7 26 6 13 7 21 1 21 -11 0 -26 -39 -22 -59 2 -11 0 -11 -12 0
-11 10 -12 16 -3 21 7 5 7 8 0 8 -17 0 -25 -12 -14 -24 5 -7 5 -18 1 -25 -7
-10 -10 -9 -16 8 -3 11 -11 21 -17 21 -6 0 -6 -6 2 -15 7 -8 9 -15 5 -15 -4 0
-1 -8 6 -17 12 -16 12 -17 -2 -6 -11 9 -19 9 -26 2 -8 -8 -13 -7 -18 2 -6 8
-4 10 5 4 9 -6 11 -4 5 4 -5 9 -10 10 -18 2 -7 -7 -6 -15 4 -27 12 -16 12 -17
-1 -9 -18 11 -59 18 -45 8 6 -5 12 -19 13 -33 1 -18 -1 -21 -8 -10 -5 8 -7 17
-4 21 2 4 -3 9 -11 12 -10 4 -12 1 -8 -10 5 -13 2 -15 -11 -10 -9 4 -15 3 -11
-2 3 -5 1 -12 -5 -16 -5 -3 -10 -11 -10 -18 0 -6 7 -2 16 9 8 10 13 14 10 7
-4 -6 -2 -14 3 -17 5 -4 12 2 14 11 4 17 5 17 6 0 0 -10 -9 -22 -21 -28 -21
-9 -21 -9 4 -4 23 4 27 2 22 -12 -3 -10 2 -6 11 10 18 31 31 37 15 7 -8 -15
-7 -25 3 -41 13 -17 15 -18 21 -4 4 10 2 14 -6 9 -7 -5 -8 -3 -3 6 6 9 4 11
-6 5 -8 -5 -5 1 5 13 21 25 36 31 16 7 -11 -14 -7 -19 13 -16 4 1 3 -7 -3 -18
-14 -27 -13 -38 3 -18 11 16 16 14 64 -22 28 -21 75 -47 103 -57 46 -17 50
-20 33 -32 -22 -16 -27 -78 -7 -86 8 -3 14 -12 14 -20 0 -23 38 -39 75 -32 51
10 89 48 89 91 l0 35 52 0 c49 0 96 22 139 63 6 7 27 23 45 37 19 14 57 48 86
75 30 28 93 86 140 130 134 122 222 214 284 293 14 18 44 53 68 77 23 25 42
50 42 55 0 5 10 20 23 33 31 32 67 80 67 89 0 4 10 18 23 32 12 13 29 37 37
53 8 15 17 30 20 33 30 29 149 231 246 417 67 127 77 170 53 230 -6 15 -16 39
-21 53 -6 14 -21 46 -34 71 -29 57 -30 65 -4 72 32 8 35 50 6 124 -14 38 -35
75 -45 82 -15 11 -17 18 -9 30 13 22 -5 90 -32 119 -38 41 -93 21 -110 -39
-15 -50 -12 -73 10 -99 23 -26 18 -40 -14 -40 -40 0 -66 -34 -100 -131 -9 -25
-23 -54 -32 -65 -8 -10 -13 -13 -9 -6 4 7 2 18 -3 25 -6 7 -12 21 -14 32 -4
25 -40 54 -46 37 -2 -7 -9 -9 -15 -5 -7 3 -9 3 -5 -2 4 -4 -2 -15 -14 -25 -17
-13 -18 -17 -5 -17 9 0 14 4 11 9 -3 4 0 8 5 8 14 0 14 -17 1 -25 -6 -4 -8
-10 -6 -14 3 -4 1 -13 -4 -21 -5 -9 -5 -19 1 -26 12 -14 -15 -13 -28 1 -4 4
-2 5 6 0 10 -6 12 -4 7 4 -4 6 -3 18 4 26 8 10 8 15 -2 21 -7 4 -10 4 -6 -1 4
-4 3 -14 -3 -21 -5 -7 -12 -24 -15 -38 -3 -21 -1 -24 13 -20 17 5 17 5 0 -6
-10 -6 -26 -9 -35 -5 -9 3 -13 3 -9 -1 4 -4 1 -14 -6 -23 -10 -14 -10 -14 5
-3 13 11 21 11 35 2 15 -10 15 -11 1 -6 -9 2 -22 -3 -29 -12 -8 -9 -9 -14 -5
-10 11 9 36 -10 36 -26 0 -6 -4 -5 -9 3 -5 8 -19 15 -30 16 -14 1 -18 -2 -11
-10 5 -6 5 -16 -1 -25 -9 -13 -10 -13 -6 0 2 8 -2 21 -10 28 -7 8 -11 18 -7
23 3 5 2 9 -3 8 -23 -4 -31 4 -37 36 -4 19 -25 101 -47 182 -23 82 -43 155
-45 163 -2 8 -11 42 -20 75 -9 33 -18 67 -20 75 -2 8 -15 59 -29 113 l-25 97
20 23 c23 24 22 67 -2 90 -20 18 -64 20 -90 3 -13 -8 -41 -18 -63 -22 -22 -3
-46 -11 -52 -17 -7 -5 -13 -6 -13 -2 0 4 -7 2 -15 -5 -8 -7 -15 -9 -15 -5 0 4
-7 2 -15 -5 -9 -7 -17 -11 -20 -8 -2 2 46 53 107 114 218 215 293 381 284 631
-5 149 -26 193 -90 193 -33 0 -57 -25 -111 -113 -25 -42 -50 -77 -54 -77 -4 0
-16 9 -26 20 -19 21 -7 28 13 8 9 -9 12 -9 12 0 0 7 -4 12 -10 12 -5 0 -9 3
-9 8 3 19 -2 25 -11 12 -7 -11 -10 -11 -10 -2 0 7 -4 11 -10 7 -5 -3 -7 -12
-4 -19 6 -17 -12 -31 -21 -16 -4 6 -11 8 -16 4 -6 -3 -3 -12 8 -20 16 -13 15
-13 -10 -4 -16 5 -26 6 -23 1 3 -4 -3 -16 -14 -26 -23 -21 -15 -49 13 -41 15
4 17 2 8 -7 -9 -9 -16 -9 -31 1 -11 7 -20 9 -19 5 3 -21 -2 -27 -12 -13 -9 13
-10 13 -6 0 2 -8 12 -14 22 -12 11 2 14 -1 10 -8 -4 -7 -17 -9 -29 -6 -20 5
-20 5 -2 -9 20 -15 20 -15 0 -16 -10 -1 -26 -1 -34 0 -11 1 -11 -1 3 -9 9 -6
21 -9 26 -6 5 4 7 -3 4 -15 -4 -15 -8 -17 -14 -7 -7 11 -10 10 -21 -1 -11 -11
-11 -13 1 -6 9 5 12 3 10 -4 -3 -7 -8 -12 -13 -11 -5 1 -13 -5 -18 -14 -5 -9
-12 -14 -16 -12 -4 3 -8 -7 -9 -22 -1 -21 0 -23 6 -9 4 10 11 18 15 17 5 -1
12 4 16 10 5 8 9 7 13 -3 4 -11 0 -15 -14 -12 -12 3 -19 -2 -19 -12 0 -8 -9
-17 -20 -20 -11 -3 -17 -9 -14 -14 3 -5 14 -5 25 1 10 6 19 8 19 4 0 -3 6 -1
13 5 10 8 14 7 14 -2 0 -12 -16 -16 -77 -18 -14 0 -19 -3 -12 -6 19 -7 14 -22
-6 -18 -11 2 -19 -3 -19 -10 0 -8 4 -12 8 -9 4 2 10 0 14 -6 3 -5 2 -10 -4
-10 -5 0 -8 -9 -6 -20 4 -21 -10 -36 -19 -21 -4 5 -2 12 4 16 11 7 4 25 -10
25 -5 0 -7 -7 -4 -15 4 -8 -1 -17 -10 -21 -9 -3 -13 -10 -10 -15 3 -5 -2 -12
-11 -15 -13 -6 -14 -8 -3 -15 11 -7 10 -11 -2 -18 -8 -5 -18 -7 -22 -5 -4 3
-8 0 -8 -6 0 -6 7 -10 16 -8 10 2 19 -4 21 -12 4 -13 3 -13 -6 0 -9 13 -11 13
-12 -2 -3 -35 -4 -38 -14 -37 -5 0 -12 3 -15 6 -3 4 0 4 5 0 6 -3 11 3 11 13
0 10 -6 16 -12 13 -13 -5 -11 -33 2 -56 5 -8 2 -8 -9 2 -12 9 -17 10 -17 2 0
-7 -4 -9 -10 -6 -6 3 -7 -1 -4 -10 4 -10 2 -15 -6 -13 -7 2 -15 -4 -17 -12 -4
-13 -3 -13 6 0 9 13 11 13 11 -2 0 -10 -5 -18 -11 -18 -5 0 -7 -4 -4 -10 3 -6
-1 -7 -10 -4 -9 4 -14 13 -10 22 4 11 2 12 -7 4 -9 -7 -41 3 -113 36 -55 26
-101 50 -103 54 -2 5 -9 8 -16 8 -7 0 -34 11 -62 24 -120 58 -382 174 -417
186 -21 6 -49 10 -62 8 -22 -5 -21 -2 14 46 49 68 55 76 178 261 151 226 304
447 319 462 7 7 16 22 19 33 3 11 11 20 16 20 5 0 9 5 9 10 0 9 29 38 114 115
12 11 42 36 66 55 24 19 48 40 54 45 11 10 241 203 280 235 68 55 105 94 110
115 3 13 -5 66 -18 118 -13 52 -22 105 -19 118 3 15 -3 33 -16 48 -12 13 -26
43 -32 65 -6 23 -19 70 -29 106 -10 36 -42 157 -72 270 -32 123 -60 212 -70
222 -22 22 -74 23 -125 3 -21 -8 -49 -17 -63 -19 -14 -3 -45 -10 -70 -17 -25
-6 -53 -12 -62 -14 -9 -2 -26 -9 -38 -15 -12 -7 -31 -10 -41 -7 -10 3 -17 1
-13 -4 3 -5 -1 -10 -8 -10 -7 -1 -22 -3 -33 -5 -66 -12 -67 -12 -83 44 l-15
52 29 23 c15 12 73 53 129 91 120 82 276 216 341 291 35 40 51 52 60 44 8 -7
14 -6 17 3 3 7 4 3 4 -9 -1 -14 -5 -19 -12 -13 -6 5 -17 5 -25 -2 -12 -8 -12
-9 2 -4 10 3 20 1 24 -5 4 -6 12 -5 22 3 14 11 14 9 -1 -14 -18 -29 -13 -39 7
-14 9 13 13 13 26 -2 13 -14 13 -15 -1 -10 -9 4 -16 1 -16 -7 0 -7 8 -10 19
-7 10 2 18 -1 18 -7 0 -7 -4 -10 -9 -6 -5 3 -13 0 -17 -6 -4 -8 -3 -9 4 -5 7
4 12 2 12 -5 0 -10 3 -10 12 -1 7 7 17 12 22 12 6 0 5 -5 -2 -12 -18 -18 -14
-32 5 -17 11 10 14 10 9 2 -4 -7 -2 -13 3 -13 6 0 11 -5 11 -11 0 -5 -4 -7
-10 -4 -5 3 -10 1 -10 -4 0 -14 17 -14 25 -1 3 5 12 7 20 4 8 -4 12 -11 9 -16
-4 -6 -10 -5 -15 3 -6 10 -9 10 -9 2 0 -6 4 -14 10 -18 5 -3 7 -12 4 -19 -3
-8 0 -17 7 -22 8 -4 10 -3 5 4 -4 7 -2 20 3 29 8 13 10 14 11 4 0 -11 3 -10
13 3 12 16 14 16 14 2 0 -15 -10 -20 -30 -17 -5 1 -5 -3 -2 -9 4 -6 13 -9 21
-6 7 3 16 0 20 -6 5 -7 2 -8 -6 -3 -10 6 -11 4 -5 -11 4 -10 8 -26 9 -34 0
-18 37 -22 48 -6 5 8 8 7 8 -1 0 -6 -4 -15 -10 -18 -5 -3 -10 -11 -10 -17 0
-6 7 -5 17 3 12 11 17 11 20 2 3 -7 4 -15 3 -18 0 -3 6 -13 15 -21 11 -12 12
-20 5 -35 -8 -15 -8 -19 2 -17 8 2 12 -5 10 -17 -5 -27 7 -14 13 14 2 12 0 19
-5 16 -6 -3 -7 1 -4 9 5 12 8 12 23 -2 9 -9 13 -18 9 -20 -14 -6 -8 -22 6 -16
18 7 30 -12 15 -22 -7 -4 -9 -3 -5 4 4 7 -1 10 -14 9 -23 -1 -28 -17 -5 -17
18 0 19 -12 4 -27 -9 -9 -7 -11 7 -9 11 2 19 8 19 14 0 6 7 17 15 24 12 11 12
11 1 -4 -7 -10 -10 -18 -7 -18 4 0 2 -8 -3 -19 -8 -14 -6 -23 9 -36 11 -10 17
-22 13 -28 -3 -6 -1 -7 6 -3 6 4 8 12 5 18 -4 5 6 2 21 -8 l27 -17 -24 -14
-23 -14 23 4 c24 5 30 -11 11 -30 -9 -9 -8 -11 4 -9 9 1 20 6 24 11 4 4 2 5
-6 0 -10 -5 -12 -4 -7 4 11 16 26 3 19 -16 -5 -12 -3 -14 8 -8 12 7 12 6 1 -7
-9 -11 -10 -18 -2 -23 6 -3 8 -11 4 -16 -3 -5 -2 -9 3 -8 20 4 24 -2 12 -18
-11 -13 -8 -13 16 3 l30 19 -24 -35 -25 -35 27 24 c29 26 34 22 16 -11 -8 -15
-8 -19 0 -14 6 4 11 3 11 -3 0 -5 -6 -11 -12 -14 -7 -2 7 -3 32 -2 25 2 52 6
61 10 12 4 24 -4 40 -27 13 -18 26 -35 30 -38 3 -3 9 -15 13 -26 9 -31 41 -64
60 -64 9 0 16 -8 16 -20 0 -54 38 -88 82 -74 52 16 62 67 23 107 -16 15 -22
28 -15 32 12 8 32 -3 25 -14 -9 -16 21 -42 57 -47 28 -5 45 -1 72 16 20 12 34
25 32 28 -2 4 0 16 4 27 7 19 8 18 18 -7 14 -34 56 -44 104 -24 55 23 65 84
21 134 -50 55 -58 66 -76 106 -21 47 -43 65 -80 66 -26 0 -27 1 -21 40 5 33 1
52 -24 103 -17 34 -39 71 -49 82 -11 11 -22 28 -26 38 -3 9 -11 17 -17 17 -5
0 -10 6 -10 13 0 7 -8 22 -17 33 -10 10 -24 31 -31 45 -8 14 -30 44 -50 67
-21 22 -46 53 -57 68 -11 15 -32 41 -47 58 -15 17 -46 53 -70 80 -36 42 -223
231 -293 297 -12 10 -25 19 -31 19 -6 0 -21 14 -34 30 -13 17 -26 30 -31 30
-7 0 -44 32 -119 103 -41 40 -115 97 -124 97 -4 0 -16 9 -28 20 -12 11 -28 20
-35 20 -7 0 -13 4 -13 10 0 5 -19 19 -42 31 -24 12 -46 27 -50 34 -9 15 -219
135 -236 135 -5 0 -12 4 -14 8 -7 17 -158 92 -185 92 -25 0 -79 -30 -138 -75
-23 -18 -32 -19 -41 -2 -4 6 -4 9 0 5 8 -7 21 2 57 37 15 15 19 28 15 49 -11
54 -64 72 -106 36z m-60 -212 c0 -6 -3 -8 -7 -5 -3 4 -11 2 -18 -3 -8 -7 -12
-6 -12 3 0 7 9 14 19 14 10 1 18 -3 18 -9z m-4230 -518 c0 -5 -2 -10 -4 -10
-3 0 -8 5 -11 10 -3 6 -1 10 4 10 6 0 11 -4 11 -10z m-60 -27 c0 -3 -6 -3 -14
0 -22 9 -27 -5 -8 -20 15 -13 15 -13 -5 -3 -12 5 -25 15 -29 22 -4 6 -3 8 4 4
6 -3 13 -2 17 3 5 10 35 4 35 -6z m30 7 c0 -5 -5 -10 -11 -10 -5 0 -7 5 -4 10
3 6 8 10 11 10 2 0 4 -4 4 -10z m4804 2 c3 -5 -1 -9 -9 -9 -8 0 -12 4 -9 9 3
4 7 8 9 8 2 0 6 -4 9 -8z m-62 -47 c-21 -9 -31 -19 -26 -26 4 -8 3 -9 -4 -5
-7 4 -12 11 -12 15 0 10 40 30 60 30 8 0 0 -6 -18 -14z m-4876 -34 c-4 -5 0
-11 6 -14 7 -2 9 -8 5 -13 -9 -10 -28 16 -21 28 3 4 7 8 10 8 3 0 3 -4 0 -9z
m4898 -23 c-3 -4 -9 -8 -15 -8 -5 0 -9 4 -9 8 0 5 7 9 15 9 8 0 12 -4 9 -9z
m-4869 -27 c3 -5 2 -12 -3 -15 -5 -3 -9 1 -9 9 0 17 3 19 12 6z m-45 -11 c0
-5 -2 -10 -4 -10 -3 0 -8 5 -11 10 -3 6 -1 10 4 10 6 0 11 -4 11 -10z m-50
-16 c0 -3 -7 -12 -15 -20 -16 -17 -18 -14 -9 10 6 15 24 23 24 10z m36 -32
c-17 -16 -18 -16 -5 5 7 12 15 20 18 17 3 -2 -3 -12 -13 -22z m-110 -44 c-9
-5 -14 -13 -11 -19 4 -5 1 -9 -4 -9 -14 0 -14 6 1 29 7 11 16 17 21 14 5 -3 2
-10 -7 -15z m4914 13 c0 -4 -11 -7 -24 -7 -14 0 -23 3 -21 6 5 9 45 10 45 1z
m-4880 -26 c-7 -9 -15 -13 -19 -10 -3 3 1 10 9 15 21 14 24 12 10 -5z m-75
-16 c-4 -5 -1 -9 4 -9 6 0 11 -5 11 -11 0 -8 -4 -9 -13 0 -8 6 -18 7 -23 3 -4
-4 -3 0 4 9 6 9 8 20 4 24 -4 5 -1 5 6 1 7 -4 10 -12 7 -17z m3165 6 c0 -1 -9
-5 -19 -8 -13 -3 -18 -1 -14 9 4 10 33 10 33 -1z m2340 -70 c19 -22 8 -25 -12
-3 -10 10 -14 18 -9 18 5 0 14 -7 21 -15z m-5493 -8 c0 -8 -6 -14 -14 -14 -9
0 -10 4 -2 14 6 7 12 13 14 13 1 0 2 -6 2 -13z m4843 9 c0 -2 -8 -10 -17 -17
-16 -13 -17 -12 -4 4 13 16 21 21 21 13z m-4880 -17 c0 -5 -4 -8 -9 -4 -6 3
-14 -3 -20 -12 -6 -10 -11 -13 -11 -7 0 12 20 34 32 34 4 0 8 -5 8 -11z m3259
8 c-2 -1 -13 -9 -24 -17 -19 -14 -19 -14 -6 3 7 9 18 17 24 17 6 0 8 -1 6 -3z
m1551 -7 c-8 -5 -11 -10 -7 -10 5 0 5 -5 2 -10 -4 -6 -11 -8 -16 -4 -12 7 8
34 25 34 6 0 4 -5 -4 -10z m-3268 -23 c-12 -7 -20 -15 -18 -18 3 -3 -5 -6 -16
-6 -19 -2 -18 0 7 17 17 11 35 20 40 20 6 -1 0 -6 -13 -13z m3236 -22 c-3 -3
-9 2 -12 12 -6 14 -5 15 5 6 7 -7 10 -15 7 -18z m-3201 -2 c0 -8 -4 -10 -12
-3 -7 5 -16 6 -20 2 -5 -4 -5 -2 -2 4 9 15 34 13 34 -3z m-1657 -8 c-7 -8 -18
-15 -24 -15 -6 0 -2 7 8 15 25 19 32 19 16 0z m5677 -14 c0 -11 -5 -18 -9 -15
-4 3 -5 11 -1 19 7 21 12 19 10 -4z m-4042 0 c3 -5 2 -12 -3 -15 -5 -3 -9 1
-9 9 0 17 3 19 12 6z m3201 -19 c-17 -16 -18 -16 -5 5 7 12 15 20 18 17 3 -2
-3 -12 -13 -22z m-1452 10 c3 -5 -1 -9 -9 -9 -8 0 -15 4 -15 9 0 4 4 8 9 8 6
0 12 -4 15 -8z m2336 -1 c0 -6 -4 -12 -8 -15 -5 -3 -9 1 -9 9 0 8 4 15 9 15 4
0 8 -4 8 -9z m-2383 -21 c22 -17 23 -20 7 -17 -10 1 -20 6 -21 11 -1 5 -7 13
-15 17 -7 5 -9 9 -5 9 5 0 20 -9 34 -20z m-3327 -15 c0 -2 -6 -8 -13 -14 -10
-8 -14 -7 -14 2 0 8 6 14 14 14 7 0 13 -1 13 -2z m4804 -11 c3 -8 2 -12 -4 -9
-6 3 -10 10 -10 16 0 14 7 11 14 -7z m-3239 -3 c3 -5 2 -12 -3 -15 -5 -3 -9 1
-9 9 0 17 3 19 12 6z m1805 -11 c0 -5 -5 -10 -11 -10 -5 0 -7 5 -4 10 3 6 8
10 11 10 2 0 4 -4 4 -10z m1377 -22 c-3 -8 -6 -5 -6 6 -1 11 2 17 5 13 3 -3 4
-12 1 -19z m42 9 c8 -10 7 -14 -2 -14 -8 0 -14 6 -14 14 0 7 1 13 2 13 2 0 8
-6 14 -13z m-3268 -14 c12 -16 12 -17 -2 -6 -9 7 -20 9 -24 5 -5 -4 -5 -1 -1
6 9 16 11 15 27 -5z m4265 5 c4 -7 3 -8 -4 -4 -6 3 -16 -3 -23 -16 -9 -16 -9
-23 0 -26 6 -2 11 -9 11 -15 0 -6 -7 -4 -17 5 -15 16 -15 19 1 42 19 29 22 31
32 14z m-5831 -36 c-3 -3 -11 0 -18 7 -9 10 -8 11 6 5 10 -3 15 -9 12 -12z
m1550 9 c3 -5 2 -12 -3 -15 -5 -3 -9 1 -9 9 0 17 3 19 12 6z m4286 -8 c13 -16
12 -17 -3 -4 -10 7 -18 15 -18 17 0 8 8 3 21 -13z m-1107 -14 c-3 -5 -10 -7
-15 -3 -5 3 -7 10 -3 15 3 5 10 7 15 3 5 -3 7 -10 3 -15z m40 13 c3 -5 -1 -9
-9 -9 -8 0 -12 4 -9 9 3 4 7 8 9 8 2 0 6 -4 9 -8z m-17 -36 c0 -8 -5 -14 -11
-13 -6 1 -10 -4 -8 -11 1 -8 -2 -11 -8 -7 -8 5 -6 13 6 26 21 23 21 23 21 5z
m1133 -1 c0 -12 -19 -12 -23 0 -4 9 -1 12 9 8 7 -3 14 -7 14 -8z m-4478 -28
c-7 -8 -8 -18 -4 -22 4 -5 1 -5 -5 -1 -10 5 -10 11 -1 26 7 11 14 17 17 15 2
-3 -1 -11 -7 -18z m88 7 c0 -8 -19 -13 -24 -6 -3 5 1 9 9 9 8 0 15 -2 15 -3z
m-1591 -37 c0 -9 -2 -8 -6 1 -2 6 -10 9 -15 6 -7 -4 -8 -2 -4 5 9 13 26 5 25
-12z m1551 19 c0 -3 -4 -8 -10 -11 -5 -3 -10 -1 -10 4 0 6 5 11 10 11 6 0 10
-2 10 -4z m4438 -21 c-3 -3 -9 2 -12 12 -6 14 -5 15 5 6 7 -7 10 -15 7 -18z
m53 -32 c13 -17 13 -17 -6 -3 -11 8 -22 16 -24 17 -2 2 0 3 6 3 6 0 17 -8 24
-17z m-6047 -11 c3 -5 -1 -9 -9 -9 -8 0 -12 4 -9 9 3 4 7 8 9 8 2 0 6 -4 9 -8z
m6076 -22 c0 -5 -2 -10 -4 -10 -3 0 -8 5 -11 10 -3 6 -1 10 4 10 6 0 11 -4 11
-10z m-4656 -38 c3 -5 -1 -9 -9 -9 -8 0 -12 4 -9 9 3 4 7 8 9 8 2 0 6 -4 9 -8z
m-1557 -27 c0 -8 -4 -12 -9 -9 -5 3 -6 10 -3 15 9 13 12 11 12 -6z m6217 -11
l-7 -26 27 17 c14 9 23 22 19 28 -4 6 -1 7 7 2 10 -6 6 -14 -15 -31 -21 -17
-33 -20 -42 -13 -9 8 -9 15 0 30 16 26 19 24 11 -7z m-6134 -6 c0 -6 -6 -5
-15 2 -8 7 -15 14 -15 16 0 2 7 1 15 -2 8 -4 15 -11 15 -16z m1356 -31 c4 -4
14 -1 23 6 14 10 14 10 3 -5 -14 -18 -36 -18 -53 -1 -9 9 -7 11 4 9 9 -1 20
-5 23 -9z m4866 -2 c2 3 5 -2 5 -10 0 -10 -4 -12 -12 -5 -7 5 -14 8 -17 5 -2
-3 -5 2 -5 10 0 10 4 12 12 5 7 -5 14 -8 17 -5z m-6302 -5 c-8 -5 -19 -10 -25
-10 -5 0 -3 5 5 10 8 5 20 10 25 10 6 0 3 -5 -5 -10z m6 -35 c-1 -13 -4 -27
-7 -30 -5 -4 -4 41 0 53 4 10 8 -2 7 -23z m1404 14 c0 -5 -4 -7 -10 -4 -5 3
-10 -2 -10 -12 0 -14 -2 -15 -9 -4 -10 16 -18 4 -15 -26 0 -12 -2 -20 -7 -17
-4 2 -5 12 -2 21 5 12 3 14 -8 9 -8 -4 -1 4 14 18 30 27 47 33 47 15z m2975
-18 c-3 -5 2 -12 10 -14 12 -4 12 -5 -1 -3 -19 1 -32 26 -14 26 6 0 9 -4 5 -9z
m62 -34 c1 -11 1 -18 0 -16 -2 2 -8 11 -15 20 -9 12 -9 16 1 16 7 0 14 -9 14
-20z m-26 -14 c13 -16 12 -17 -3 -4 -10 7 -18 15 -18 17 0 8 8 3 21 -13z
m1963 -22 c-5 -6 -34 20 -34 30 0 5 8 1 18 -8 10 -10 17 -20 16 -22z m-6417 2
c0 -9 -4 -10 -14 -2 -7 6 -13 12 -13 14 0 1 6 2 13 2 8 0 14 -6 14 -14z m4517
9 c3 -5 -1 -9 -9 -9 -8 0 -12 4 -9 9 3 4 7 8 9 8 2 0 6 -4 9 -8z m-4574 -27
c0 -2 -9 -3 -19 -2 -11 0 -18 5 -15 9 4 6 34 0 34 -7z m1430 5 c0 -5 -2 -10
-4 -10 -3 0 -8 5 -11 10 -3 6 -1 10 4 10 6 0 11 -4 11 -10z m5005 -12 c5 4 5
1 1 -6 -6 -10 -11 -10 -22 -1 -8 6 -14 17 -14 23 0 6 7 3 14 -6 7 -10 17 -14
21 -10z m60 3 c3 -5 2 -12 -3 -15 -5 -3 -9 1 -9 9 0 17 3 19 12 6z m-5082 -26
c-7 -21 -12 -19 -10 4 0 11 5 18 9 15 4 -3 5 -11 1 -19z m3118 8 c13 -16 12
-17 -3 -4 -10 7 -18 15 -18 17 0 8 8 3 21 -13z m-3204 -18 c0 -8 -5 -11 -10
-8 -6 4 -8 0 -4 -10 4 -11 2 -14 -9 -10 -7 3 -14 0 -14 -6 0 -6 6 -11 13 -12
9 0 9 -2 -1 -6 -9 -3 -10 -9 -3 -17 7 -8 5 -12 -8 -12 -25 0 -19 41 10 72 27
28 26 28 26 9z m3258 5 c3 -6 -1 -7 -9 -4 -18 7 -21 14 -7 14 6 0 13 -4 16
-10z m-70 -20 c-3 -5 -1 -10 5 -10 6 0 8 -4 5 -10 -10 -16 -23 -11 -20 8 5 23
4 22 11 22 3 0 2 -4 -1 -10z m1963 -26 c0 -17 -3 -22 -8 -13 -5 6 -6 18 -3 26
8 19 11 16 11 -13z m39 2 c0 -8 -6 -12 -15 -9 -11 5 -11 7 0 14 7 5 13 9 14 9
0 0 1 -6 1 -14z m-1971 -15 c-6 -9 -46 -22 -46 -15 0 3 10 9 23 14 29 11 29
11 23 1z m74 3 c0 -8 -19 -13 -24 -6 -3 5 1 9 9 9 8 0 15 -2 15 -3z m-3355
-64 c3 -6 -1 -7 -9 -4 -18 7 -21 14 -7 14 6 0 13 -4 16 -10z m-1509 -206 c7 3
16 0 20 -6 4 -7 3 -8 -4 -4 -14 8 -15 4 -6 -18 6 -15 8 -15 20 1 13 16 13 15
3 -9 l-12 -27 -23 35 c-13 19 -23 40 -23 47 1 7 3 4 6 -6 3 -11 11 -16 19 -13z
m64 -39 c0 -8 -4 -15 -10 -15 -5 0 -7 7 -4 15 4 8 8 15 10 15 2 0 4 -7 4 -15z
m4234 -1 c3 -8 2 -12 -4 -9 -6 3 -10 10 -10 16 0 14 7 11 14 -7z m-4184 -20
c0 -2 -9 0 -20 6 -11 6 -20 13 -20 16 0 2 9 0 20 -6 11 -6 20 -13 20 -16z
m4121 -17 c-10 -9 -11 -8 -5 6 3 10 9 15 12 12 3 -3 0 -11 -7 -18z m-4141 3
c12 -7 10 -9 -8 -7 -12 0 -22 5 -22 9 0 11 12 10 30 -2z m4210 -4 c0 -2 -8
-10 -17 -17 -16 -13 -17 -12 -4 4 13 16 21 21 21 13z m-4283 -21 c0 -8 -4 -12
-9 -9 -4 3 -8 9 -8 15 0 5 4 9 8 9 5 0 9 -7 9 -15z m59 -21 c1 -9 0 -13 -4
-10 -3 4 -7 14 -8 22 -1 9 0 13 4 10 3 -4 7 -14 8 -22z m4220 -19 c1 -8 -1
-17 -5 -19 -4 -3 -7 6 -7 19 0 25 8 25 12 0z m-4245 -2 c13 -16 12 -17 -3 -4
-17 13 -22 21 -14 21 2 0 10 -8 17 -17z m4185 -15 c5 -7 3 -8 -6 -3 -10 6 -12
4 -7 -8 4 -11 2 -14 -9 -10 -11 4 -12 9 -3 19 14 17 16 17 25 2z m-3136 -2 c0
-2 -8 -10 -17 -17 -16 -13 -17 -12 -4 4 13 16 21 21 21 13z m-1040 -12 c0 -8
-19 -13 -24 -6 -3 5 1 9 9 9 8 0 15 -2 15 -3z m947 -3 c15 -10 13 -11 -15 -7
-18 2 -30 0 -26 -5 3 -5 9 -7 14 -4 5 3 11 1 15 -5 4 -6 11 -7 17 -4 7 4 8 2
4 -5 -4 -6 -12 -9 -17 -6 -18 12 -9 -7 14 -26 l22 -20 -25 12 c-24 12 -24 11
-10 -7 8 -10 11 -16 6 -12 -5 4 -21 1 -37 -7 -16 -9 -40 -16 -54 -17 -14 -1
-25 -6 -25 -11 0 -5 -8 -3 -17 4 -11 10 -14 10 -9 2 4 -7 4 -13 -1 -14 -4 0
-17 -3 -28 -6 -11 -3 -30 -6 -42 -7 -13 0 -23 -5 -23 -10 0 -5 -3 -7 -6 -3 -4
3 -19 0 -34 -8 -15 -8 -30 -11 -33 -8 -4 3 -13 0 -22 -7 -8 -7 -15 -9 -15 -5
0 4 -6 3 -12 -2 -7 -5 -20 -9 -28 -8 -8 0 -17 -3 -21 -7 -3 -4 -28 -10 -57
-14 l-52 -5 19 48 c10 26 27 68 37 93 26 67 39 79 98 82 163 10 346 9 363 -1z
m53 5 c0 -2 -7 -7 -16 -10 -8 -3 -12 -2 -9 4 6 10 25 14 25 6z m-1043 -34 c0
-10 -6 -19 -13 -19 -9 0 -9 5 -1 19 7 10 13 18 14 18 1 0 1 -8 0 -18z m1087
10 c3 -5 -1 -9 -9 -9 -8 0 -12 4 -9 9 3 4 7 8 9 8 2 0 6 -4 9 -8z m3126 -18
c0 0 -10 -9 -22 -20 -16 -13 -19 -14 -10 -2 10 13 10 17 0 21 -7 3 -3 4 10 4
12 -1 22 -2 22 -3z m-3150 -18 c0 -3 -4 -8 -10 -11 -5 -3 -10 -1 -10 4 0 6 5
11 10 11 6 0 10 -2 10 -4z m-1105 -36 c-10 -11 -21 -18 -23 -15 -3 3 3 12 14
20 27 20 30 18 9 -5z m51 -12 c4 -7 3 -8 -5 -4 -6 4 -20 2 -29 -6 -15 -12 -16
-11 -3 5 16 20 27 22 37 5z m-71 -28 c-3 -5 -16 -10 -28 -9 -20 1 -20 2 3 9
14 4 26 8 28 9 2 1 0 -3 -3 -9z m59 -9 c3 -5 -2 -15 -12 -22 -15 -12 -16 -12
-5 2 7 9 10 19 6 22 -3 4 -4 7 0 7 3 0 8 -4 11 -9z m4136 -1 c-8 -5 -19 -10
-25 -10 -5 0 -3 5 5 10 8 5 20 10 25 10 6 0 3 -5 -5 -10z m-49 -17 c13 -16 12
-17 -3 -4 -10 7 -18 15 -18 17 0 8 8 3 21 -13z m-4181 2 c0 -2 -10 -10 -22
-16 -21 -11 -22 -11 -9 4 13 16 31 23 31 12z m15 -25 c3 -5 1 -10 -4 -10 -6 0
-11 5 -11 10 0 6 2 10 4 10 3 0 8 -4 11 -10z m4142 -5 c0 -8 -4 -12 -9 -9 -5
3 -6 10 -3 15 9 13 12 11 12 -6z m-4777 -15 c0 -5 -4 -10 -10 -10 -5 0 -10 5
-10 10 0 6 5 10 10 10 6 0 10 -4 10 -10z m-26 -27 c5 -13 4 -14 -9 -3 -8 7
-15 9 -15 6 0 -4 -5 -4 -10 -1 -15 9 -2 25 15 19 7 -3 16 -13 19 -21z m637 13
c-14 -16 -4 -25 22 -21 9 2 15 0 12 -5 -4 -7 -34 -7 -42 0 -2 2 -7 3 -13 4
-13 1 -13 21 -1 21 5 0 13 3 17 8 13 13 17 8 5 -7z m4144 -5 c-9 -8 -36 -10
-30 -2 2 4 11 8 20 8 8 0 13 -3 10 -6z m-4151 -40 c3 -5 -1 -11 -9 -15 -15 -6
-29 7 -18 18 9 9 21 8 27 -3z m87 -8 c13 -17 13 -17 -6 -3 -11 8 -22 16 -24
17 -2 2 0 3 6 3 6 0 17 -8 24 -17z m3917 -48 c0 -14 -4 -27 -8 -30 -3 -2 -5 6
-4 18 1 12 3 25 3 30 2 18 9 5 9 -18z m-3981 -10 c-6 -7 -15 -11 -19 -8 -14 8
-8 19 12 20 16 1 17 -1 7 -12z m68 5 c3 -5 1 -10 -4 -10 -6 0 -11 5 -11 10 0
6 2 10 4 10 3 0 8 -4 11 -10z m-45 -44 c0 -2 -7 -7 -16 -10 -8 -3 -12 -2 -9 4
6 10 25 14 25 6z m3921 -29 c-10 -9 -11 -8 -5 6 3 10 9 15 12 12 3 -3 0 -11
-7 -18z m-3921 -6 c0 -6 -4 -12 -8 -15 -5 -3 -9 1 -9 9 0 8 4 15 9 15 4 0 8
-4 8 -9z m503 -16 c-3 -9 -8 -14 -10 -11 -3 3 -2 9 2 15 9 16 15 13 8 -4z
m3320 -60 c-3 -9 -8 -14 -10 -11 -3 3 -2 9 2 15 9 16 15 13 8 -4z m22 -14 c3
-5 2 -12 -3 -15 -5 -3 -9 1 -9 9 0 17 3 19 12 6z m-40 -20 c3 -5 2 -12 -3 -15
-5 -3 -9 1 -9 9 0 17 3 19 12 6z m-4592 -34 c3 -8 -1 -14 -8 -14 -7 0 -11 6
-8 14 3 7 6 13 8 13 2 0 5 -6 8 -13z m1327 -31 c0 -2 -8 -10 -17 -17 -16 -13
-17 -12 -4 4 13 16 21 21 21 13z m11 -29 c-6 -8 -9 -16 -6 -19 3 -3 -3 -11
-12 -19 -16 -13 -17 -12 -4 4 7 9 10 17 6 17 -4 0 -2 7 5 15 7 8 15 15 17 15
3 0 0 -6 -6 -13z m-1331 -12 c-7 -8 -17 -15 -23 -15 -6 0 -2 7 9 15 25 19 30
19 14 0z m1365 -5 c3 -5 1 -10 -4 -10 -6 0 -11 5 -11 10 0 6 2 10 4 10 3 0 8
-4 11 -10z m-1404 -42 c-11 -10 -13 -10 -7 0 4 6 2 12 -4 12 -6 0 -8 5 -4 11
4 8 9 8 17 0 8 -8 7 -14 -2 -23z m1424 -18 c3 -5 1 -10 -4 -10 -6 0 -11 5 -11
10 0 6 2 10 4 10 3 0 8 -4 11 -10z m-1425 -75 c14 -19 14 -19 -2 -6 -10 7 -18
18 -18 24 0 6 1 8 3 6 1 -2 9 -13 17 -24z m1375 3 c5 4 5 1 1 -6 -6 -10 -11
-10 -22 -1 -8 6 -14 14 -14 16 0 3 6 0 13 -6 8 -6 18 -7 22 -3z m75 -62 c0 -3
-4 -8 -10 -11 -5 -3 -10 -1 -10 4 0 6 5 11 10 11 6 0 10 -2 10 -4z m-1396 -64
c3 -5 -1 -9 -9 -9 -8 0 -12 4 -9 9 3 4 7 8 9 8 2 0 6 -4 9 -8z m-39 -42 c-3
-5 -12 -10 -18 -10 -7 0 -6 4 3 10 19 12 23 12 15 0z m1400 0 c-3 -5 -12 -10
-18 -10 -7 0 -6 4 3 10 19 12 23 12 15 0z m85 -33 c0 -2 -10 -13 -23 -25 -18
-17 -24 -19 -24 -8 0 8 4 13 8 11 3 -3 12 2 19 10 12 14 20 19 20 12z m-67
-58 c-8 -8 -13 -7 -18 2 -5 8 -4 10 3 5 7 -4 12 -2 12 5 0 7 3 9 7 6 4 -4 2
-12 -4 -18z m74 -16 c0 -10 -4 -10 -16 -1 -9 7 -18 13 -20 15 -2 1 5 1 16 0
11 0 20 -7 20 -14z m3 -49 c0 -8 -19 -13 -24 -6 -3 5 1 9 9 9 8 0 15 -2 15 -3z
m-33 -41 c-9 -2 -14 -9 -11 -15 4 -7 2 -8 -5 -4 -15 10 -4 26 17 25 15 -1 15
-2 -1 -6z m-1510 -28 c0 -8 -4 -12 -9 -9 -4 3 -8 0 -8 -5 0 -6 -4 -11 -8 -11
-5 0 -9 7 -9 15 0 8 4 12 9 9 4 -3 8 0 8 5 0 6 4 11 8 11 5 0 9 -7 9 -15z m3
-80 c0 -5 -5 -3 -10 5 -5 8 -10 20 -10 25 0 6 5 3 10 -5 5 -8 10 -19 10 -25z
m16 -33 c0 -22 -38 -23 -44 -1 -3 11 -2 11 6 1 7 -10 11 -10 22 3 16 19 16 19
16 -3z m-5 -55 c-10 -9 -11 -8 -5 6 3 10 9 15 12 12 3 -3 0 -11 -7 -18z m45
-9 c4 -7 4 -10 -1 -6 -4 4 -15 2 -24 -5 -14 -11 -14 -10 -2 6 16 20 18 21 27
5z m7295 -46 c-6 -2 -9 -7 -7 -11 3 -4 -5 -8 -17 -8 -12 -1 -17 1 -12 5 15 10
12 38 -4 34 -7 -1 -10 2 -6 8 4 6 16 3 32 -7 14 -9 21 -19 14 -21z m-7351 3
c-10 -12 -10 -18 1 -32 13 -15 12 -15 -8 -2 -25 15 -40 41 -19 33 8 -3 17 -1
21 5 3 6 9 11 12 11 3 0 0 -7 -7 -15z m7264 -17 c-4 -6 -10 -5 -15 3 -8 13
-13 5 -10 -14 1 -5 -3 -6 -9 -2 -8 5 -8 11 0 20 13 15 43 9 34 -7z m-7284 -44
c-7 -7 -18 -10 -26 -7 -11 4 -12 9 -4 19 7 7 18 10 26 7 11 -4 12 -9 4 -19z
m7340 2 c0 -2 -8 -10 -17 -17 -16 -13 -17 -12 -4 4 13 16 21 21 21 13z m-7344
-54 c1 -12 -2 -19 -7 -17 -4 3 -9 -1 -12 -7 -3 -7 -4 -3 -4 9 1 12 5 19 9 17
4 -3 8 -1 8 5 0 5 -5 12 -10 14 -6 3 -5 4 2 3 7 -1 14 -12 14 -24z m7264 -7
c0 -2 -9 -3 -19 -2 -11 0 -18 5 -15 9 4 6 34 0 34 -7z m31 -2 c13 -16 12 -17
-3 -4 -10 7 -18 15 -18 17 0 8 8 3 21 -13z m-7260 -20 c13 -16 12 -17 -3 -4
-10 7 -18 15 -18 17 0 8 8 3 21 -13z m43 9 c3 -5 -1 -9 -9 -9 -8 0 -12 4 -9 9
3 4 7 8 9 8 2 0 6 -4 9 -8z m7123 -47 c0 -8 -4 -12 -9 -9 -5 3 -6 10 -3 15 9
13 12 11 12 -6z m-7117 -9 c0 -3 -4 -8 -10 -11 -5 -3 -10 -1 -10 4 0 6 5 11
10 11 6 0 10 -2 10 -4z m7131 -53 c13 -16 12 -17 -3 -4 -10 7 -18 15 -18 17 0
8 8 3 21 -13z m-7146 -33 c3 -6 -1 -7 -9 -4 -18 7 -21 14 -7 14 6 0 13 -4 16
-10z m-21 -19 c14 -15 15 -21 4 -27 -7 -4 -10 -3 -5 1 4 5 0 17 -10 27 -9 10
-14 18 -11 18 3 0 13 -9 22 -19z m7087 -8 c13 -16 12 -17 -3 -4 -10 7 -18 15
-18 17 0 8 8 3 21 -13z m-7108 -6 c3 -8 -3 -14 -14 -14 -10 -1 -19 3 -19 8 0
6 5 7 10 4 6 -3 10 -1 10 4 0 15 7 14 13 -2z m7151 -13 c3 -8 2 -12 -4 -9 -6
3 -10 10 -10 16 0 14 7 11 14 -7z m-36 -16 c-2 -7 3 -12 10 -10 8 1 11 -2 7
-8 -5 -8 -11 -7 -21 1 -16 13 -18 29 -4 29 6 0 9 -6 8 -12z m-78 -52 c8 -11
10 -17 3 -13 -6 4 -14 3 -18 -3 -4 -6 -10 -8 -15 -5 -6 4 -4 14 2 25 7 11 13
18 13 17 0 -1 7 -11 15 -21z m-7036 -12 c3 -8 2 -12 -4 -9 -6 3 -10 10 -10 16
0 14 7 11 14 -7z m7116 12 c0 -3 -4 -8 -10 -11 -5 -3 -10 -1 -10 4 0 6 5 11
10 11 6 0 10 -2 10 -4z m-7084 -21 c-3 -23 -22 -39 -31 -26 -3 7 -1 10 6 9 7
-2 14 3 15 10 2 19 4 22 8 22 2 0 3 -7 2 -15z m6984 -25 c0 -5 -2 -10 -4 -10
-3 0 -8 5 -11 10 -3 6 -1 10 4 10 6 0 11 -4 11 -10z m6 -38 c-17 -16 -18 -16
-5 5 7 12 15 20 18 17 3 -2 -3 -12 -13 -22z m54 24 c0 -3 -4 -8 -10 -11 -5 -3
-10 -1 -10 4 0 6 5 11 10 11 6 0 10 -2 10 -4z m-7003 -53 c0 -9 -4 -10 -12 -3
-7 5 -14 7 -17 4 -3 -3 -8 -1 -11 3 -3 5 5 9 17 9 12 0 23 -6 23 -13z m6983
13 c0 -2 -7 -7 -16 -10 -8 -3 -12 -2 -9 4 6 10 25 14 25 6z m-7002 -51 c-3 -3
-9 2 -12 12 -6 14 -5 15 5 6 7 -7 10 -15 7 -18z m6963 8 c13 -16 12 -17 -3 -4
-10 7 -18 15 -18 17 0 8 8 3 21 -13z m-6987 -9 c4 -10 2 -13 -6 -8 -7 5 -9 2
-5 -9 4 -10 2 -14 -7 -11 -7 3 -13 11 -13 19 0 8 4 12 9 9 4 -3 8 0 8 5 0 16
7 13 14 -5z m6903 -4 c-1 -11 -5 -20 -9 -20 -10 0 -10 4 -2 24 8 22 13 20 11
-4z m59 -5 c-1 -8 -8 -21 -16 -28 -10 -10 -11 -9 -4 3 5 8 9 18 10 23 3 14 4
17 8 17 2 0 3 -7 2 -15z m-6939 -20 c0 -8 -4 -12 -9 -9 -5 3 -6 10 -3 15 9 13
12 11 12 -6z m-24 -22 c-7 -2 -13 -9 -13 -14 0 -6 4 -8 8 -5 5 3 9 -1 9 -9 0
-10 -4 -12 -12 -5 -7 5 -15 6 -19 2 -4 -4 -6 0 -4 8 3 17 18 30 33 29 6 0 4
-3 -2 -6z m48 -20 c13 -16 12 -17 -3 -4 -10 7 -18 15 -18 17 0 8 8 3 21 -13z
m3555 -32 c-4 -5 0 -11 6 -14 7 -2 1 -4 -14 -4 -31 -1 -38 13 -10 20 9 3 18 5
20 6 2 0 1 -3 -2 -8z m61 -36 c0 -8 -4 -12 -9 -9 -5 3 -6 10 -3 15 9 13 12 11
12 -6z m-3617 -19 c0 -2 -6 -9 -14 -15 -11 -9 -16 -9 -22 0 -4 7 -3 9 4 5 6
-3 13 -2 17 4 6 10 15 14 15 6z m3560 -50 c0 -3 -4 -8 -10 -11 -5 -3 -10 -1
-10 4 0 6 5 11 10 11 6 0 10 -2 10 -4z m-3584 -25 c0 -16 -4 -17 -18 -10 -10
5 -18 12 -18 15 0 3 4 3 9 -1 5 -3 12 -1 16 5 9 14 11 13 11 -9z m3533 -5 c9
-11 9 -16 -1 -22 -7 -4 -10 -4 -6 1 4 4 3 14 -3 22 -6 7 -9 13 -6 13 2 0 10
-6 16 -14z m-3504 -36 c3 -6 -1 -7 -9 -4 -18 7 -21 14 -7 14 6 0 13 -4 16 -10z
m29 1 c3 -5 -2 -15 -12 -22 -15 -12 -16 -12 -5 2 7 9 10 19 6 22 -3 4 -4 7 0
7 3 0 8 -4 11 -9z m3 -86 c0 -8 -4 -12 -9 -9 -5 3 -6 10 -3 15 9 13 12 11 12
-6z m16 -45 c10 -12 9 -12 -4 -2 -9 6 -18 9 -21 6 -3 -3 -9 -1 -12 4 -9 15 22
8 37 -8z m3082 -20 c-3 -5 -12 -10 -18 -10 -7 0 -6 4 3 10 19 12 23 12 15 0z
m-3098 -24 c0 -8 -6 -12 -15 -9 -11 5 -11 7 0 14 7 5 13 9 14 9 0 0 1 -6 1
-14z m43 0 c0 -2 -7 -7 -16 -10 -8 -3 -12 -2 -9 4 6 10 25 14 25 6z m3080 0
c0 -3 -4 -8 -10 -11 -5 -3 -10 -1 -10 4 0 6 5 11 10 11 6 0 10 -2 10 -4z m-54
-44 c-17 -16 -18 -16 -5 5 7 12 15 20 18 17 3 -2 -3 -12 -13 -22z m-102 -59
c4 -11 1 -11 -14 -3 -24 13 -25 17 -5 17 8 0 16 -6 19 -14z m-2924 -10 c0 -3
-7 -2 -16 1 -12 5 -15 2 -10 -11 6 -14 4 -15 -5 -6 -14 14 -3 34 16 26 8 -3
15 -7 15 -10z m2910 -27 c0 -3 -4 -8 -10 -11 -5 -3 -10 -1 -10 4 0 6 5 11 10
11 6 0 10 -2 10 -4z m-1313 -23 c-4 -3 -1 -13 6 -22 11 -14 10 -14 -5 -2 -16
12 -16 31 -1 31 4 0 3 -3 0 -7z m1249 -2 c-4 -5 0 -11 6 -14 7 -2 9 -8 5 -13
-9 -10 -28 16 -21 28 3 4 7 8 10 8 3 0 3 -4 0 -9z m-1196 -16 c-7 -8 -17 -15
-23 -15 -6 0 -2 7 9 15 25 19 30 19 14 0z m1186 -40 c1 -8 -5 -20 -14 -27 -15
-11 -15 -11 -4 4 9 11 10 18 2 23 -5 3 -10 1 -10 -6 0 -7 -3 -9 -6 -6 -4 4 -1
13 6 22 14 17 23 13 26 -10z m-2796 -20 c0 -7 -30 -13 -34 -7 -3 4 4 9 15 9
10 1 19 0 19 -2z m1640 -20 c14 -19 14 -19 -2 -6 -10 7 -18 18 -18 24 0 6 1 8
3 6 1 -2 9 -13 17 -24z m1118 -34 c-7 -9 -13 -18 -15 -20 -1 -2 -1 5 0 16 0
11 7 20 14 20 10 0 10 -4 1 -16z m-2733 -51 c3 -6 -1 -7 -9 -4 -18 7 -21 14
-7 14 6 0 13 -4 16 -10z m7646 -23 c-13 -13 -26 -3 -16 12 3 6 11 8 17 5 6 -4
6 -10 -1 -17z m-7621 -31 c0 -2 -8 -10 -17 -17 -16 -13 -17 -12 -4 4 13 16 21
21 21 13z m2630 -2 c0 -8 -19 -13 -24 -6 -3 5 1 9 9 9 8 0 15 -2 15 -3z m4996
-18 c1 -10 0 -15 -3 -12 -4 3 -13 0 -22 -6 -9 -7 -7 -2 4 11 18 22 18 24 2 18
-11 -4 -16 -3 -12 4 10 15 28 6 31 -15z m-5932 -13 c5 -13 4 -14 -9 -3 -8 7
-15 9 -15 6 0 -4 -5 -4 -10 -1 -15 9 -2 25 15 19 7 -3 16 -13 19 -21z m-1689
-13 c3 -5 1 -10 -4 -10 -6 0 -11 5 -11 10 0 6 2 10 4 10 3 0 8 -4 11 -10z
m7599 -26 c3 -8 2 -12 -4 -9 -6 3 -10 10 -10 16 0 14 7 11 14 -7z m-19 -23 c3
-5 2 -12 -3 -15 -5 -3 -9 1 -9 9 0 17 3 19 12 6z m-68 -103 c-3 -8 -6 -5 -6 6
-1 11 2 17 5 13 3 -3 4 -12 1 -19z m-7447 -13 c0 -1 -6 -8 -14 -14 -11 -9 -16
-9 -22 0 -5 8 -3 9 6 4 10 -6 12 -4 7 8 -4 11 -2 14 9 10 7 -3 14 -6 14 -8z
m7445 -14 c-9 -8 -36 -10 -30 -2 2 4 11 8 20 8 8 0 13 -3 10 -6z m35 0 c0 -5
-8 -15 -17 -22 -16 -12 -17 -12 -6 2 7 9 10 19 6 22 -3 4 -1 7 5 7 7 0 12 -4
12 -9z m-2007 -106 c-3 -9 -8 -14 -10 -11 -3 3 -2 9 2 15 9 16 15 13 8 -4z
m-3426 -35 c2 -23 -13 -35 -23 -19 -5 8 -3 9 6 4 10 -6 12 -4 7 7 -3 9 -3 19
0 22 9 8 9 8 10 -14z m3508 -8 c-3 -3 -11 0 -18 7 -9 10 -8 11 6 5 10 -3 15
-9 12 -12z m-35 -10 c0 -5 -7 -9 -15 -9 -8 0 -12 4 -9 9 3 4 9 8 15 8 5 0 9
-4 9 -8z m-3503 -49 c0 -9 -4 -10 -14 -2 -7 6 -13 12 -13 14 0 1 6 2 13 2 8 0
14 -6 14 -14z m3496 -25 c-9 -10 -19 -15 -22 -12 -3 4 0 9 7 11 6 3 10 8 8 12
-3 4 1 8 9 8 13 0 12 -4 -2 -19z m45 -33 c-3 -3 -9 2 -12 12 -6 14 -5 15 5 6
7 -7 10 -15 7 -18z m-3477 -9 c7 4 9 3 5 -4 -9 -15 -43 -11 -43 5 0 9 4 10 13
2 7 -6 19 -7 25 -3z m3460 -3 c13 -16 12 -17 -3 -4 -10 7 -18 15 -18 17 0 8 8
3 21 -13z m-3470 -50 c17 -20 18 -23 3 -10 -11 9 -23 15 -26 12 -2 -3 -5 2 -5
10 0 19 -1 20 28 -12z m-54 3 c0 -8 -6 -12 -15 -9 -11 5 -11 7 0 14 7 5 13 9
14 9 0 0 1 -6 1 -14z m3567 2 c-4 -5 -9 -7 -12 -4 -3 3 -12 0 -21 -7 -14 -10
-14 -10 -4 4 13 16 46 23 37 7z m1693 -23 c0 -8 -4 -12 -9 -9 -5 3 -6 10 -3
15 9 13 12 11 12 -6z m-5216 -12 c8 -9 9 -14 2 -10 -6 4 -13 1 -16 -5 -3 -7
-4 -3 -4 10 1 26 1 26 18 5z m3554 8 c3 -5 2 -12 -3 -15 -5 -3 -9 1 -9 9 0 17
3 19 12 6z m-3605 -5 c0 -3 -4 -8 -10 -11 -5 -3 -10 -1 -10 4 0 6 5 11 10 11
6 0 10 -2 10 -4z m3540 -2 c0 -8 -19 -13 -24 -6 -3 5 1 9 9 9 8 0 15 -2 15 -3z
m-3460 -18 c0 -2 -8 -10 -17 -17 -16 -13 -17 -12 -4 4 13 16 21 21 21 13z
m3509 -70 c-3 -3 -11 5 -18 17 -13 21 -12 21 5 5 10 -10 16 -20 13 -22z
m-3505 5 c-8 -8 -44 -8 -44 1 0 4 11 7 25 6 13 -1 22 -4 19 -7z m5150 -3 c-3
-4 -9 -8 -15 -8 -5 0 -9 4 -9 8 0 5 7 9 15 9 8 0 12 -4 9 -9z m-93 -31 c-10
-9 -11 -8 -5 6 3 10 9 15 12 12 3 -3 0 -11 -7 -18z m-1535 -2 c-1 -8 -5 -17
-8 -21 -5 -4 -4 16 1 34 3 9 9 -1 7 -13z m1599 6 c3 -5 2 -12 -3 -15 -5 -3 -9
1 -9 9 0 17 3 19 12 6z m-1655 -11 c0 -5 -4 -10 -9 -10 -6 0 -13 5 -16 10 -3
6 1 10 9 10 9 0 16 -4 16 -10z m-3435 -19 c-9 -8 -36 -10 -30 -2 2 4 11 8 20
8 8 0 13 -3 10 -6z m3526 -28 c13 -17 13 -17 -6 -3 -11 8 -22 16 -24 17 -2 2
0 3 6 3 6 0 17 -8 24 -17z m1468 -17 c-3 -3 -11 5 -18 17 -13 21 -12 21 5 5
10 -10 16 -20 13 -22z m45 26 c3 -5 -1 -9 -9 -9 -8 0 -15 4 -15 9 0 4 4 8 9 8
6 0 12 -4 15 -8z m-70 -31 c-4 -3 -9 0 -11 7 -3 6 -10 9 -15 6 -7 -4 -8 -2 -4
5 6 9 11 9 22 0 8 -6 12 -15 8 -18z m-1494 15 c0 -2 -7 -7 -16 -10 -8 -3 -12
-2 -9 4 6 10 25 14 25 6z m-3500 -20 c0 -2 -7 -7 -16 -10 -8 -3 -12 -2 -9 4 6
10 25 14 25 6z m40 -29 c0 -2 -10 -12 -22 -23 l-23 -19 19 23 c18 21 26 27 26
19z m3536 -37 c2 -29 -19 -49 -32 -29 -4 6 -12 5 -22 -3 -15 -11 -15 -11 -5 3
10 12 10 18 0 30 -6 7 0 3 14 -9 17 -15 29 -20 34 -13 3 6 0 11 -7 11 -9 0
-10 3 -2 8 6 4 10 15 8 25 -1 11 0 16 4 13 3 -4 7 -20 8 -36z m1454 26 c0 -2
-8 -10 -17 -17 -16 -13 -17 -12 -4 4 13 16 21 21 21 13z m-49 -29 c-6 -8 -8
-16 -5 -19 3 -3 1 -9 -4 -12 -6 -3 -9 0 -8 6 2 16 15 38 23 38 3 0 0 -6 -6
-13z m-4896 -16 c-9 -8 -36 -10 -30 -2 2 4 11 8 20 8 8 0 13 -3 10 -6z m4816
-19 c-9 -3 -7 -10 6 -26 18 -21 18 -21 -3 -3 -23 19 -39 23 -29 7 3 -5 1 -10
-4 -10 -14 0 -14 6 -1 30 7 13 16 17 27 13 12 -5 13 -8 4 -11z m49 4 c0 -2 -8
-10 -17 -17 -16 -13 -17 -12 -4 4 13 16 21 21 21 13z m-4919 -33 c13 -16 12
-17 -3 -4 -17 13 -22 21 -14 21 2 0 10 -8 17 -17z m64 -21 c-3 -3 -11 0 -18 7
-9 10 -8 11 6 5 10 -3 15 -9 12 -12z m6 -29 c13 -16 12 -17 -3 -4 -10 7 -18
15 -18 17 0 8 8 3 21 -13z m-27 -33 c-6 -6 -10 -3 -10 10 0 13 4 16 10 10 7
-7 7 -13 0 -20z m4727 17 c-6 -8 -7 -18 -3 -22 4 -5 1 -5 -6 -1 -10 6 -10 11
-1 22 6 8 14 14 16 14 3 0 0 -6 -6 -13z m-4747 -53 c3 -8 2 -12 -4 -9 -6 3
-10 10 -10 16 0 14 7 11 14 -7z m52 -16 c3 -4 -1 -5 -10 -4 -8 1 -18 5 -22 8
-3 4 1 5 10 4 8 -1 18 -5 22 -8z m4650 -25 c2 -27 1 -27 -14 3 -8 15 -8 21 1
21 7 0 13 -11 13 -24z m-4696 7 c0 -5 -5 -10 -11 -10 -5 0 -7 5 -4 10 3 6 8
10 11 10 2 0 4 -4 4 -10z m4674 -32 c-3 -4 -11 -5 -19 -1 -8 3 -15 -1 -15 -8
0 -7 -3 -10 -6 -6 -10 10 6 26 26 24 10 -1 17 -5 14 -9z m-4610 -9 c-2 -4 -16
-6 -30 -4 -20 2 -24 -1 -19 -14 5 -12 3 -13 -6 -4 -17 17 -5 28 29 28 17 1 29
-2 26 -6z m4616 -13 c0 -2 -7 -7 -16 -10 -8 -3 -12 -2 -9 4 6 10 25 14 25 6z
m-4585 -15 c3 -5 2 -12 -3 -15 -5 -3 -9 1 -9 9 0 17 3 19 12 6z m-84 -25 c-9
-11 -8 -18 4 -30 9 -9 12 -16 6 -16 -18 0 -31 36 -19 48 17 17 23 15 9 -2z
m4587 -11 c-3 -3 -9 2 -12 12 -6 14 -5 15 5 6 7 -7 10 -15 7 -18z m-4548 11
c0 -2 -8 -10 -17 -17 -16 -13 -17 -12 -4 4 13 16 21 21 21 13z m20 -20 c0 -2
-8 -10 -17 -17 -16 -13 -17 -12 -4 4 13 16 21 21 21 13z m4473 -20 c4 -10 1
-13 -8 -9 -8 3 -12 9 -9 14 7 12 11 11 17 -5z m-4446 -33 c0 -10 -4 -10 -16
-1 -9 7 -18 13 -20 15 -2 1 5 1 16 0 11 0 20 -7 20 -14z m4458 -14 c-4 -5 -12
-9 -18 -8 -9 0 -8 2 1 6 6 2 9 10 6 15 -4 7 -2 8 5 4 6 -4 9 -12 6 -17z
m-4515 7 c0 -3 -4 -8 -10 -11 -5 -3 -10 -1 -10 4 0 6 5 11 10 11 6 0 10 -2 10
-4z m31 -13 c13 -16 12 -17 -3 -4 -17 13 -22 21 -14 21 2 0 10 -8 17 -17z
m-28 -18 c-3 -9 -8 -14 -10 -11 -3 3 -2 9 2 15 9 16 15 13 8 -4z m91 -45 c-6
-6 -10 -3 -10 10 0 13 4 16 10 10 7 -7 7 -13 0 -20z m4299 -6 c-3 -8 -7 -14
-10 -14 -3 0 -3 6 0 14 3 7 0 20 -6 27 -10 11 -9 11 5 0 9 -7 14 -19 11 -27z
m-4349 -3 c4 -5 -3 -7 -14 -4 -23 6 -26 13 -6 13 8 0 17 -4 20 -9z m4325 -19
c-1 -15 -2 -15 -6 1 -2 9 -8 15 -13 12 -5 -3 -7 -13 -4 -23 5 -14 4 -14 -4 -2
-8 10 -8 18 0 27 13 16 28 7 27 -15z m-173 -170 c-17 -16 -18 -16 -5 5 7 12
15 20 18 17 3 -2 -3 -12 -13 -22z m-4706 -7 c0 -2 -6 -8 -13 -14 -10 -8 -14
-7 -14 2 0 8 6 14 14 14 7 0 13 -1 13 -2z m27 -30 c0 -8 -4 -12 -9 -9 -5 3 -6
10 -3 15 9 13 12 11 12 -6z m10 -87 c-3 -8 -6 -5 -6 6 -1 11 2 17 5 13 3 -3 4
-12 1 -19z m68 -27 c3 -5 2 -12 -3 -15 -5 -3 -9 1 -9 9 0 17 3 19 12 6z m25
-36 c0 -2 -10 -10 -22 -16 -21 -11 -22 -11 -9 4 13 16 31 23 31 12z m105 -132
c6 -17 7 -17 21 2 14 19 15 19 11 -2 -5 -34 -11 -35 -37 -8 -13 14 -19 25 -13
25 6 0 14 -8 18 -17z m121 -112 c-11 -12 -13 -21 -6 -24 6 -4 6 -5 -1 -3 -7 1
-13 10 -15 19 -1 9 2 15 6 12 5 -3 11 -1 15 5 3 5 9 10 12 10 3 0 -2 -9 -11
-19z m31 -10 c0 -11 -5 -18 -9 -15 -4 3 -5 11 -1 19 7 21 12 19 10 -4z m10
-83 c-3 -8 -6 -5 -6 6 -1 11 2 17 5 13 3 -3 4 -12 1 -19z m49 10 c4 -6 3 -8
-4 -4 -6 3 -15 -2 -21 -11 -6 -10 -11 -13 -11 -7 0 9 19 34 26 34 2 0 6 -5 10
-12z"/>
<path d="M2850 8518 c-19 -13 -40 -29 -47 -38 -20 -24 -15 -67 10 -90 22 -22
29 -22 114 -4 71 14 96 80 48 129 -32 32 -77 33 -125 3z"/>
<path d="M3067 8336 c-10 -8 -20 -29 -23 -47 -14 -82 130 -157 167 -87 16 31
2 69 -43 110 -43 40 -71 46 -101 24z"/>
<path d="M6276 8343 c6 -4 14 -15 17 -23 5 -11 6 -9 4 4 -1 11 -9 21 -17 23
-10 3 -11 2 -4 -4z"/>
<path d="M2533 8300 c-29 -26 -30 -69 -3 -98 17 -18 32 -22 88 -22 39 0 75 5
85 13 27 19 31 68 8 97 -16 21 -29 25 -88 28 -59 3 -71 1 -90 -18z"/>
<path d="M6585 8160 c-3 -6 1 -7 9 -4 18 7 21 14 7 14 -6 0 -13 -4 -16 -10z"/>
<path d="M2190 8066 c0 -2 7 -7 16 -10 8 -3 12 -2 9 4 -6 10 -25 14 -25 6z"/>
<path d="M6767 8064 c-6 -6 19 -37 27 -32 2 2 12 -8 23 -21 15 -19 23 -22 38
-14 12 7 14 13 6 17 -6 4 -11 2 -11 -3 0 -6 -5 -11 -11 -11 -5 0 -8 4 -4 9 3
6 -4 15 -15 21 -11 6 -20 7 -20 3 -1 -4 -6 2 -13 15 -7 12 -16 20 -20 16z"/>
<path d="M1935 7880 c-3 -5 -1 -10 4 -10 6 0 11 5 11 10 0 6 -2 10 -4 10 -3 0
-8 -4 -11 -10z"/>
<path d="M6756 7862 c-2 -4 -1 -14 3 -21 6 -9 11 -10 15 -2 4 6 2 11 -4 11 -6
0 -8 5 -5 10 3 6 4 10 1 10 -3 0 -7 -4 -10 -8z"/>
<path d="M4910 7780 c-9 -6 -10 -10 -3 -10 6 0 15 5 18 10 8 12 4 12 -15 0z"/>
<path d="M6662 7754 c-7 -8 -8 -14 -3 -14 10 0 25 19 20 25 -2 1 -10 -3 -17
-11z"/>
<path d="M8612 7750 c-12 -12 -22 -30 -22 -41 0 -25 27 -79 40 -79 6 0 10 -7
10 -15 0 -20 45 -37 76 -29 54 14 51 90 -5 152 -35 37 -67 41 -99 12z"/>
<path d="M3343 7677 c-4 -6 -1 -7 7 -2 10 6 12 4 6 -10 -5 -14 -4 -16 7 -7 8
7 17 9 21 5 4 -4 4 0 1 8 -7 17 -33 21 -42 6z"/>
<path d="M4960 7613 c5 -2 8 -9 4 -14 -3 -5 0 -9 6 -9 15 0 7 23 -8 26 -7 1
-8 0 -2 -3z"/>
<path d="M8730 7560 c-13 -13 -20 -30 -17 -41 3 -12 -2 -20 -15 -25 -24 -7
-41 -50 -33 -81 5 -23 40 -43 74 -43 25 0 61 37 61 63 0 13 9 29 19 36 14 10
18 24 16 49 -4 41 -11 50 -52 58 -24 5 -36 1 -53 -16z"/>
<path d="M6483 7545 c0 -8 4 -12 9 -9 5 3 6 10 3 15 -9 13 -12 11 -12 -6z"/>
<path d="M1620 7520 c18 -12 30 -13 30 -2 0 4 -10 9 -22 9 -18 2 -20 0 -8 -7z"/>
<path d="M8470 7472 c0 -4 -13 -13 -29 -20 -49 -22 -53 -87 -7 -112 52 -27
146 20 146 75 0 36 -33 65 -75 65 -19 0 -35 -3 -35 -8z"/>
<path d="M1005 7438 c-30 -17 -36 -30 -30 -61 6 -35 22 -51 55 -55 39 -4 64
20 64 63 0 55 -41 80 -89 53z"/>
<path d="M1549 7448 c-6 -20 -6 -39 0 -42 4 -3 7 6 7 20 0 20 -4 32 -7 22z"/>
<path d="M5143 7443 c4 -3 1 -13 -6 -22 -11 -14 -10 -14 5 -2 16 12 16 31 1
31 -4 0 -3 -3 0 -7z"/>
<path d="M7513 7351 c0 -11 6 -19 12 -18 5 1 9 -4 7 -11 -1 -8 2 -11 8 -7 8 5
6 13 -4 24 -9 10 -13 21 -9 24 3 4 1 7 -5 7 -6 0 -10 -9 -9 -19z"/>
<path d="M1494 7335 c-4 -8 -9 -13 -13 -10 -4 2 -8 -2 -8 -10 0 -7 8 -13 18
-12 10 1 15 5 12 10 -2 4 1 14 7 22 9 11 9 15 1 15 -6 0 -14 -7 -17 -15z"/>
<path d="M2970 7289 c0 -5 5 -7 10 -4 6 3 10 8 10 11 0 2 -4 4 -10 4 -5 0 -10
-5 -10 -11z"/>
<path d="M8565 7204 c-14 -10 -20 -26 -20 -54 0 -46 9 -57 52 -66 24 -5 36 -1
52 15 59 59 -18 155 -84 105z"/>
<path d="M1368 7151 c-15 -17 -14 -18 8 -18 18 0 22 3 14 12 -5 6 -7 15 -3 18
3 4 4 7 2 7 -3 0 -12 -8 -21 -19z"/>
<path d="M7670 7140 c0 -5 5 -10 11 -10 5 0 7 5 4 10 -3 6 -8 10 -11 10 -2 0
-4 -4 -4 -10z"/>
<path d="M8659 7033 c-37 -9 -47 -65 -23 -128 8 -19 7 -19 -10 -2 -25 24 -31
21 -13 -6 12 -19 13 -24 2 -24 -8 0 -12 4 -10 8 3 3 -2 12 -10 19 -13 11 -14
10 -8 -6 6 -16 5 -17 -9 -6 -14 11 -16 10 -11 -8 4 -16 2 -19 -11 -14 -9 3 -2
-10 16 -30 22 -25 35 -33 43 -26 8 7 12 5 12 -4 0 -18 -16 -15 -53 8 -16 10
-24 13 -17 6 6 -7 9 -20 6 -29 -4 -14 -3 -14 6 -1 6 8 11 12 12 8 1 -5 3 -12
4 -18 1 -5 3 -14 4 -20 0 -5 6 -10 12 -10 8 0 8 4 1 13 -8 9 -7 13 6 13 10 0
18 -8 18 -17 0 -10 -4 -15 -8 -13 -4 3 -8 0 -8 -6 0 -6 -4 -9 -8 -6 -5 3 -9
-1 -9 -9 0 -12 3 -12 15 -2 13 10 14 8 8 -13 -6 -19 -5 -21 3 -10 9 12 11 11
11 -8 0 -15 -4 -21 -12 -16 -7 4 -8 3 -4 -5 4 -6 12 -9 17 -5 6 3 8 -6 4 -23
-5 -24 -4 -25 4 -7 11 25 31 41 31 25 0 -6 -4 -11 -9 -11 -5 0 -11 -11 -13
-25 -4 -18 -2 -23 6 -16 8 7 16 3 25 -11 9 -14 9 -18 1 -13 -9 5 -10 1 -6 -16
6 -20 5 -21 -4 -6 -6 9 -8 23 -4 30 5 9 4 9 -6 0 -12 -11 -10 -18 7 -42 17
-22 19 -31 10 -40 -9 -9 -7 -11 8 -5 11 4 17 4 13 -1 -4 -4 -1 -20 7 -36 20
-37 19 -44 -2 -28 -17 13 -17 13 0 -7 9 -11 15 -23 12 -26 -3 -2 2 -5 10 -5 8
0 11 5 8 11 -12 19 -11 51 4 76 13 23 12 13 -4 -27 -6 -16 -5 -17 12 -3 18 15
18 14 1 -12 -16 -25 -16 -27 1 -36 16 -9 15 -11 -9 -17 -26 -7 -27 -8 -12 -31
9 -13 12 -29 8 -35 -4 -8 -3 -9 4 -5 16 10 15 -7 0 -23 -10 -11 -10 -13 0 -7
7 4 12 2 12 -6 0 -8 13 -21 28 -30 23 -14 32 -15 42 -5 12 10 12 9 1 -6 -12
-15 -16 -16 -36 -3 -19 12 -22 12 -22 0 0 -8 7 -14 14 -14 8 0 11 -5 8 -10 -4
-6 -11 -7 -17 -4 -7 4 -8 2 -4 -5 4 -6 11 -9 15 -7 4 3 13 1 21 -5 9 -5 10 -9
3 -9 -13 0 -15 -59 -1 -61 4 -1 12 -2 17 -3 5 0 13 -5 18 -10 4 -5 3 -6 -3 -3
-17 10 -39 -19 -23 -29 8 -5 9 -3 4 6 -5 9 -4 11 4 6 6 -4 20 -2 29 6 15 12
16 11 3 -4 -11 -15 -11 -21 0 -35 11 -15 10 -15 -8 1 -20 17 -23 17 -29 2 -3
-9 -10 -16 -16 -16 -5 0 -7 3 -5 8 3 4 0 16 -4 27 -8 18 -9 18 -5 -3 4 -18 1
-22 -11 -18 -14 6 -14 4 -2 -11 12 -15 12 -16 -3 -10 -10 3 -20 1 -24 -5 -4
-7 -3 -8 4 -4 21 13 13 -8 -11 -29 -13 -11 -18 -17 -12 -13 5 3 19 0 30 -9 20
-15 20 -15 -3 -8 -12 3 -22 3 -21 -2 4 -26 -2 -44 -13 -37 -9 5 -9 2 1 -9 11
-14 11 -17 0 -17 -11 0 -11 -2 1 -10 18 -12 40 -14 25 -2 -18 13 -15 29 8 48
l22 19 -18 -21 c-15 -19 -16 -24 -4 -36 11 -11 11 -16 2 -25 -7 -7 -16 -9 -19
-5 -4 3 -4 -2 0 -13 7 -18 6 -19 -12 -5 -17 13 -18 13 -7 0 9 -12 8 -20 -4
-35 -15 -20 -15 -20 -8 3 4 13 2 22 -5 22 -6 0 -8 -4 -5 -10 3 -5 -1 -10 -10
-10 -15 0 -15 -1 -1 -16 9 -8 16 -21 16 -27 0 -8 -3 -8 -8 -2 -4 6 -16 17 -27
25 -16 11 -17 11 -7 0 6 -8 12 -22 12 -33 0 -11 4 -15 12 -11 6 4 8 3 5 -3 -4
-6 -18 -9 -32 -8 -14 2 -23 -1 -19 -6 3 -5 10 -7 15 -4 5 4 19 -1 31 -10 23
-16 23 -16 -7 -10 -20 5 -26 3 -17 -3 8 -5 14 -13 14 -18 0 -5 4 -16 8 -24 7
-12 13 -13 29 -3 15 9 22 10 27 1 4 -6 3 -8 -3 -5 -6 4 -19 -3 -29 -14 -14
-16 -15 -19 -2 -14 11 4 15 0 15 -12 0 -41 2 -45 17 -31 11 11 11 14 0 23 -10
7 -11 14 -3 25 9 13 10 12 5 -2 -5 -17 5 -23 29 -18 5 1 1 -8 -9 -19 -11 -12
-14 -21 -9 -21 6 0 10 -9 9 -20 -1 -21 17 -23 20 -2 1 6 -1 10 -6 7 -4 -3 -6
4 -3 15 7 25 11 22 16 -9 2 -12 10 -27 18 -33 11 -8 11 -9 -3 -4 -20 6 -22 2
-9 -23 7 -13 6 -18 -4 -18 -7 0 -11 7 -8 16 3 12 2 11 -7 -2 -6 -10 -16 -14
-23 -10 -9 5 -9 3 -1 -8 9 -13 11 -30 4 -44 -1 -3 -3 -8 -4 -12 -1 -5 -5 -14
-10 -22 -6 -9 -5 -12 0 -8 6 3 16 1 24 -4 13 -8 13 -10 0 -19 -8 -5 -10 -10
-4 -10 6 0 11 -7 11 -15 0 -8 -4 -15 -9 -15 -4 0 -8 -5 -8 -11 0 -8 4 -8 14 0
8 7 13 21 11 31 -2 11 0 22 4 25 10 6 7 -48 -4 -66 -5 -8 1 -6 12 4 16 14 23
15 29 6 4 -7 3 -10 -4 -5 -12 7 -21 -4 -27 -33 -3 -14 1 -18 12 -14 11 4 11 8
3 13 -9 5 -9 9 -1 14 6 4 11 4 12 -1 0 -4 2 -16 4 -26 2 -9 -1 -15 -5 -12 -5
3 -12 0 -16 -6 -4 -8 -3 -9 4 -5 7 4 12 1 12 -6 1 -7 7 -2 15 12 l15 25 -6
-30 c-4 -23 -3 -26 5 -15 9 13 11 13 11 -2 0 -10 -6 -18 -12 -18 -10 0 -9 -3
1 -9 7 -5 11 -13 8 -18 -3 -5 3 -9 13 -10 10 -1 21 6 23 15 3 9 5 0 6 -21 0
-22 5 -36 11 -32 5 3 6 13 3 22 -4 10 2 8 18 -8 13 -13 24 -28 24 -34 1 -5 6
-9 11 -8 6 1 11 -5 11 -13 0 -12 -3 -12 -17 1 -9 8 -21 12 -25 8 -5 -5 -3 0 4
10 8 10 9 17 3 17 -18 0 -24 -20 -11 -36 10 -13 10 -17 -2 -25 -8 -5 -9 -9 -4
-9 6 0 15 4 21 10 6 6 10 4 10 -8 0 -13 -6 -17 -22 -14 -12 2 -25 -2 -29 -8
-5 -9 -1 -10 14 -5 20 6 21 5 10 -13 -7 -12 -18 -18 -24 -14 -5 3 -4 -2 4 -11
7 -9 19 -17 25 -17 6 0 5 4 -3 9 -9 6 -10 11 -2 15 6 4 11 2 11 -4 0 -6 4 -9
8 -6 4 2 8 -3 8 -13 0 -12 -6 -16 -22 -13 -12 2 -25 -2 -29 -8 -5 -9 -1 -10
15 -5 21 7 21 6 5 -18 -15 -23 -15 -26 0 -41 9 -9 12 -16 6 -16 -6 0 -11 -9
-11 -21 0 -13 -4 -18 -12 -13 -14 9 10 -26 27 -38 6 -5 5 -8 -2 -8 -7 0 -13
-9 -13 -21 0 -11 4 -18 9 -14 5 3 12 1 16 -4 3 -6 -3 -8 -15 -6 -11 2 -23 -1
-26 -7 -4 -7 -2 -8 4 -4 7 4 12 2 12 -4 0 -6 5 -8 12 -4 7 5 8 3 4 -5 -5 -7
-14 -10 -22 -7 -8 3 -14 1 -14 -4 0 -6 5 -10 12 -10 6 0 8 -3 5 -7 -4 -3 0
-18 10 -32 l16 -26 -24 20 -23 20 15 -25 c16 -26 15 -60 -2 -60 -6 0 -5 8 1
20 7 14 7 20 0 20 -5 0 -10 -6 -10 -14 0 -8 -6 -17 -12 -19 -10 -4 -10 -6 -1
-6 19 -1 36 -38 21 -47 -6 -4 -8 -3 -5 3 4 6 -1 17 -11 24 -15 13 -16 12 -3
-3 12 -16 11 -18 -5 -19 -16 0 -15 -2 4 -9 12 -5 30 -7 40 -5 9 3 2 -2 -15
-10 -18 -8 -33 -18 -33 -21 0 -3 4 -3 8 0 4 2 14 -4 21 -16 7 -11 8 -17 2 -13
-6 3 -12 1 -12 -4 -1 -6 -2 -15 -3 -20 0 -5 -5 -13 -10 -18 -5 -4 -6 -3 -2 4
3 6 1 15 -5 19 -8 4 -9 3 -5 -4 4 -7 1 -12 -6 -12 -8 0 -6 -5 5 -11 9 -5 23
-7 30 -4 6 4 4 0 -6 -8 -13 -11 -17 -24 -14 -47 5 -28 3 -30 -16 -25 -17 5
-19 4 -7 -4 8 -6 15 -15 15 -21 0 -6 7 -15 15 -20 12 -7 10 -9 -7 -7 -12 0
-19 6 -16 12 4 7 2 7 -5 0 -6 -5 -12 -19 -14 -30 -2 -15 2 -19 17 -17 15 2 16
0 7 -6 -8 -5 -13 -12 -13 -16 2 -18 -13 -34 -27 -30 -9 3 -6 -2 8 -11 14 -9
17 -14 8 -11 -10 3 -20 0 -24 -6 -4 -6 -3 -8 4 -4 7 4 10 -1 9 -14 -1 -15 -6
-19 -22 -14 -15 4 -17 3 -6 -5 20 -13 22 -38 5 -52 -12 -9 -12 -15 -2 -27 11
-14 10 -15 -7 -8 -16 6 -17 5 -8 -5 10 -10 16 -9 29 2 16 12 17 12 12 -2 -3
-9 -2 -22 3 -30 7 -11 9 -11 9 -1 0 7 5 10 10 7 6 -4 7 -11 4 -17 -5 -7 -2 -8
7 -2 8 5 18 9 23 9 5 0 10 6 12 13 1 7 0 8 -3 2 -2 -5 -9 -7 -14 -4 -6 3 -2
12 8 20 10 7 13 14 6 14 -6 0 -15 -5 -18 -10 -4 -6 -11 -7 -17 -4 -7 5 -8 2
-3 -6 5 -9 4 -11 -4 -6 -6 4 -9 11 -6 16 3 4 -1 10 -9 13 -8 3 -13 17 -11 37
3 39 9 45 25 25 11 -13 10 -14 -6 -8 -17 6 -17 5 -6 -9 7 -9 23 -15 34 -13 17
4 19 2 10 -7 -17 -17 -15 -33 3 -18 8 7 15 9 16 4 4 -43 13 -67 34 -88 14 -14
25 -22 25 -19 0 4 12 -5 28 -19 15 -14 59 -41 97 -59 39 -18 72 -35 74 -36 3
-2 -1 -9 -7 -15 -21 -21 -13 -57 22 -93 57 -58 120 -72 156 -33 22 23 26 68
10 98 -8 15 -6 21 9 29 10 6 23 23 29 38 31 82 62 194 62 222 0 17 10 51 22
74 23 43 36 128 43 277 2 42 9 148 15 235 8 99 10 281 7 475 -4 323 -18 478
-58 690 -11 58 -22 119 -24 135 -29 228 -254 909 -321 972 -13 12 -41 25 -61
29 -50 9 -234 -16 -258 -36 -13 -11 -35 7 -35 27 0 24 -64 39 -111 26z m-8
-156 c-10 -9 -11 -8 -5 6 3 10 9 15 12 12 3 -3 0 -11 -7 -18z m-24 -30 c0 -7
-9 -14 -19 -14 -10 -1 -18 3 -18 8 0 6 4 8 9 4 5 -3 12 -1 16 5 8 13 12 13 12
-3z m53 -81 c0 -2 -8 -10 -17 -17 -16 -13 -17 -12 -4 4 13 16 21 21 21 13z
m23 -121 c-3 -9 -8 -14 -10 -11 -3 3 -2 9 2 15 9 16 15 13 8 -4z m28 -22 c13
-16 12 -17 -3 -4 -10 7 -18 15 -18 17 0 8 8 3 21 -13z m-18 -66 c-18 -10 -20
-15 -9 -29 7 -10 16 -16 20 -13 3 3 2 0 -3 -6 -5 -6 -7 -19 -4 -28 4 -9 3 -13
-1 -10 -4 4 -9 17 -11 29 -3 13 -9 28 -14 33 -14 14 -3 33 22 34 l22 2 -22
-12z m87 -71 c0 -2 -8 -10 -17 -17 -16 -13 -17 -12 -4 4 13 16 21 21 21 13z
m-39 -105 c-8 -5 -11 -16 -7 -27 6 -18 5 -17 -9 0 -15 20 -6 36 20 36 6 0 4
-4 -4 -9z m49 -3 c0 -4 -4 -8 -9 -8 -6 0 -12 4 -15 8 -3 5 1 9 9 9 8 0 15 -4
15 -9z m40 -33 c14 -19 14 -19 -2 -6 -10 7 -18 18 -18 24 0 6 1 8 3 6 1 -2 9
-13 17 -24z m-89 -38 c-10 -9 -11 -8 -5 6 3 10 9 15 12 12 3 -3 0 -11 -7 -18z
m46 -13 c0 -7 -6 -15 -13 -18 -9 -3 -11 1 -7 12 6 15 5 16 -13 2 -17 -14 -18
-13 -7 1 15 19 40 21 40 3z m78 -63 c3 -5 2 -12 -3 -15 -5 -3 -9 1 -9 9 0 17
3 19 12 6z m-31 -9 c2 -4 -4 -8 -14 -8 -10 0 -16 4 -14 8 3 4 9 8 14 8 5 0 11
-4 14 -8z m31 -43 c-3 -12 -7 -24 -10 -27 -3 -3 -3 5 -1 19 6 30 5 29 10 29 3
0 3 -10 1 -21z m-64 -20 c-5 -13 -10 -19 -10 -12 -1 15 10 45 15 40 3 -2 0
-15 -5 -28z m30 -16 c13 -16 12 -17 -3 -4 -10 7 -18 15 -18 17 0 8 8 3 21 -13z
m-6 -103 c3 -6 -1 -7 -9 -4 -10 4 -16 1 -16 -7 0 -7 -3 -10 -6 -6 -7 7 4 27
16 27 5 0 12 -4 15 -10z m5 -36 c0 -8 -19 -13 -24 -6 -3 5 1 9 9 9 8 0 15 -2
15 -3z m-60 -68 c0 -2 -8 -10 -17 -17 -16 -13 -17 -12 -4 4 13 16 21 21 21 13z
m-19 -81 c-12 -6 -18 -14 -15 -18 11 -11 26 -8 19 3 -3 6 -1 10 5 10 7 0 10
-6 7 -12 -2 -7 -12 -12 -21 -12 -9 1 -16 -3 -16 -10 0 -6 -4 -5 -9 3 -13 20
16 62 36 54 13 -5 11 -8 -6 -18z m-27 -94 c-8 -8 -34 -10 -38 -2 -3 4 6 7 19
7 14 0 22 -2 19 -5z m-54 -62 c0 -5 5 -7 12 -3 7 4 8 3 4 -5 -6 -9 -11 -9 -22
0 -17 14 -18 19 -4 19 6 0 10 -5 10 -11z m138 -144 c-3 -3 -9 2 -12 12 -6 14
-5 15 5 6 7 -7 10 -15 7 -18z m-3 -25 c-3 -5 -12 -10 -18 -10 -7 0 -6 4 3 10
19 12 23 12 15 0z m1 -45 c1 -9 -4 -11 -14 -7 -10 4 -12 7 -4 10 7 2 9 9 5 15
-3 7 -2 8 2 4 5 -4 10 -14 11 -22z m-48 -6 c-7 -5 -9 -9 -3 -9 5 0 4 -5 -2
-11 -6 -6 -9 -18 -6 -25 3 -8 1 -14 -5 -14 -11 0 -11 18 -1 35 4 6 5 18 4 27
-2 11 2 15 12 11 12 -5 12 -7 1 -14z m93 4 c13 -16 12 -17 -3 -4 -10 7 -18 15
-18 17 0 8 8 3 21 -13z m-56 -23 c3 -6 -1 -7 -9 -4 -18 7 -21 14 -7 14 6 0 13
-4 16 -10z m70 -9 c3 -5 2 -12 -3 -15 -5 -3 -9 1 -9 9 0 17 3 19 12 6z m-81
-10 c3 -5 -2 -15 -12 -22 -15 -13 -16 -12 -4 3 10 13 10 17 0 21 -9 4 -9 6 -1
6 6 1 14 -3 17 -8z m17 -48 c13 -16 12 -17 -3 -4 -17 13 -22 21 -14 21 2 0 10
-8 17 -17z m50 -70 c13 -16 12 -17 -3 -4 -10 7 -18 15 -18 17 0 8 8 3 21 -13z
m19 -37 c0 -3 -4 -8 -10 -11 -5 -3 -10 -1 -10 4 0 6 5 11 10 11 6 0 10 -2 10
-4z m-20 -71 c0 -8 -2 -15 -4 -15 -2 0 -6 7 -10 15 -3 8 -1 15 4 15 6 0 10 -7
10 -15z m95 -34 c3 -5 2 -12 -3 -15 -5 -3 -9 1 -9 9 0 17 3 19 12 6z m46 -124
c-6 -8 -9 -17 -6 -20 3 -4 2 -5 -2 -2 -3 3 -11 0 -18 -5 -8 -7 -12 -5 -12 5 0
8 4 12 8 10 3 -3 12 2 19 10 7 8 15 15 17 15 3 0 0 -6 -6 -13z m-2 -50 c-2 -2
-11 -8 -20 -15 -12 -9 -16 -9 -16 1 0 7 9 14 20 14 11 1 18 1 16 0z m16 -55
c-3 -3 -11 0 -18 7 -9 10 -8 11 6 5 10 -3 15 -9 12 -12z m-101 -14 c-5 -8 -1
-9 12 -4 14 5 16 4 7 -5 -13 -13 -37 -3 -28 12 4 5 8 9 11 9 3 0 2 -5 -2 -12z
m85 -11 c-2 -1 -13 -9 -24 -17 -19 -14 -19 -14 -6 3 7 9 18 17 24 17 6 0 8 -1
6 -3z m-2 -41 c0 -15 -21 -16 -34 -1 -4 4 -3 5 4 1 6 -3 14 -2 18 4 8 14 12
13 12 -4z m-62 -6 c3 -6 -1 -7 -9 -4 -18 7 -21 14 -7 14 6 0 13 -4 16 -10z
m-6 -26 c4 3 8 -1 8 -8 0 -11 -4 -12 -18 -3 -10 6 -15 16 -12 21 4 6 8 5 11
-2 2 -7 7 -10 11 -8z m70 -21 c2 -1 -5 -1 -16 0 -11 0 -20 7 -20 14 0 10 4 10
16 1 9 -7 18 -13 20 -15z m-64 -23 c-3 -5 -12 -10 -18 -10 -7 0 -6 4 3 10 19
12 23 12 15 0z m64 -43 c-2 -2 -11 -8 -20 -15 -12 -9 -16 -9 -16 1 0 7 9 14
20 14 11 1 18 1 16 0z m-71 -41 c-14 -10 -15 -15 -5 -26 10 -11 8 -11 -6 0
-18 13 -18 15 -1 27 23 17 34 16 12 -1z m52 -30 c0 -2 -8 -10 -17 -17 -16 -13
-17 -12 -4 4 13 16 21 21 21 13z m-25 -76 c3 -5 1 -10 -4 -10 -6 0 -11 5 -11
10 0 6 2 10 4 10 3 0 8 -4 11 -10z m36 -7 c13 -16 12 -17 -3 -4 -10 7 -18 15
-18 17 0 8 8 3 21 -13z m-60 -20 c13 -17 13 -17 -6 -3 -11 8 -22 16 -24 17 -2
2 0 3 6 3 6 0 17 -8 24 -17z m-11 -58 c-7 -9 -15 -13 -19 -10 -3 3 1 10 9 15
21 14 24 12 10 -5z m37 -20 c0 -8 -4 -12 -9 -9 -5 3 -6 10 -3 15 9 13 12 11
12 -6z m-5 -30 c3 0 9 -3 13 -7 4 -3 0 -5 -9 -4 -9 1 -22 8 -29 16 -10 10 -9
11 3 4 8 -5 18 -9 22 -9z m-92 -179 c0 -2 -7 -7 -16 -10 -8 -3 -12 -2 -9 4 6
10 25 14 25 6z m36 -61 c-1 -8 -5 -17 -8 -21 -5 -4 -4 16 1 34 3 9 9 -1 7 -13z
m-51 -65 c3 -6 -1 -7 -9 -4 -18 7 -21 14 -7 14 6 0 13 -4 16 -10z m51 -26 c1
-9 0 -13 -4 -10 -3 4 -7 14 -8 22 -1 9 0 13 4 10 3 -4 7 -14 8 -22z m-89 -49
c0 -8 -4 -12 -9 -9 -5 3 -6 10 -3 15 9 13 12 11 12 -6z"/>
<path d="M793 6983 c4 -3 2 -12 -4 -19 -7 -9 -6 -12 8 -10 10 2 17 6 16 9 -2
4 -3 12 -3 17 0 6 -5 10 -12 10 -6 0 -8 -3 -5 -7z"/>
<path d="M7894 6915 c3 -8 1 -15 -4 -15 -6 0 -10 4 -10 8 0 5 -10 8 -22 6 -13
-1 -26 -3 -30 -3 -5 -1 -8 -5 -8 -11 0 -5 3 -9 8 -9 21 4 32 -2 26 -13 -4 -7
-4 -10 1 -6 4 4 15 2 24 -4 9 -7 7 -2 -4 11 -19 23 -19 24 -1 18 20 -8 49 10
40 24 -9 15 -26 10 -20 -6z"/>
<path d="M8205 6702 c-81 -51 -65 -142 26 -142 11 0 35 17 55 37 30 31 35 41
30 67 -8 38 -14 44 -51 51 -20 4 -40 -1 -60 -13z"/>
<path d="M537 6696 c-28 -29 -29 -53 -3 -104 34 -67 77 -82 116 -40 27 29 25
50 -7 101 -15 23 -28 43 -28 44 -1 2 -15 6 -32 9 -20 4 -35 1 -46 -10z"/>
<path d="M447 6362 c4 -10 9 -10 22 0 9 7 17 13 19 14 2 1 -8 1 -21 0 -15 0
-23 -6 -20 -14z"/>
<path d="M5150 6339 c0 -5 5 -7 10 -4 6 3 10 8 10 11 0 2 -4 4 -10 4 -5 0 -10
-5 -10 -11z"/>
<path d="M313 6264 c4 -4 -1 -13 -11 -20 -23 -18 -1 -18 22 -1 18 13 18 14 0
21 -10 4 -15 4 -11 0z"/>
<path d="M8760 6186 c7 -7 13 -7 20 0 6 6 3 10 -10 10 -13 0 -16 -4 -10 -10z"/>
<path d="M280 6165 c-7 -9 -8 -15 -2 -15 5 0 12 7 16 15 3 8 4 15 2 15 -2 0
-9 -7 -16 -15z"/>
<path d="M8773 6149 c-2 -23 3 -25 10 -4 4 8 3 16 -1 19 -4 3 -9 -4 -9 -15z"/>
<path d="M4880 6071 c-8 -6 -18 -7 -24 -4 -5 3 -6 1 -2 -5 3 -6 -2 -13 -11
-15 -13 -3 -13 -5 -3 -6 8 0 26 8 40 19 26 20 26 27 0 11z"/>
<path d="M215 5960 c-3 -5 -1 -10 4 -10 6 0 11 5 11 10 0 6 -2 10 -4 10 -3 0
-8 -4 -11 -10z"/>
<path d="M8710 5959 c0 -5 5 -7 10 -4 6 3 10 8 10 11 0 2 -4 4 -10 4 -5 0 -10
-5 -10 -11z"/>
<path d="M1514 5916 c1 -19 4 -32 8 -30 7 4 4 52 -4 59 -3 3 -4 -10 -4 -29z"/>
<path d="M1153 5915 c0 -8 4 -12 8 -9 4 2 10 -2 12 -8 4 -8 6 -9 6 -2 1 6 -5
17 -12 23 -10 8 -14 7 -14 -4z"/>
<path d="M238 5913 c-10 -2 -18 -9 -18 -14 0 -6 8 -5 20 1 11 6 20 13 20 15 0
3 -1 4 -2 4 -2 -1 -11 -3 -20 -6z"/>
<path d="M195 5891 c-3 -5 -2 -12 3 -15 5 -3 9 1 9 9 0 17 -3 19 -12 6z"/>
<path d="M1311 5592 c-26 -21 -40 -102 -18 -102 8 0 8 -3 2 -8 -16 -11 -17
-55 -3 -74 18 -24 69 -32 92 -14 26 21 42 174 20 196 -20 20 -68 21 -93 2z"/>
<path d="M170 5506 c0 -2 7 -7 16 -10 8 -3 12 -2 9 4 -6 10 -25 14 -25 6z"/>
<path d="M1660 5390 c-9 -6 -10 -10 -3 -10 6 0 15 5 18 10 8 12 4 12 -15 0z"/>
<path d="M148 5313 c7 -3 16 -2 19 1 4 3 -2 6 -13 5 -11 0 -14 -3 -6 -6z"/>
<path d="M7506 5241 c5 -18 3 -22 -7 -16 -8 5 -10 4 -6 0 4 -5 -3 -15 -15 -23
-13 -7 -16 -11 -7 -8 9 2 22 -1 29 -7 10 -9 12 -8 7 5 -7 21 11 36 40 33 18
-1 20 1 11 12 -9 11 -13 12 -19 1 -7 -11 -9 -11 -9 0 0 7 -4 11 -9 8 -5 -4
-12 0 -15 6 -3 7 -3 2 0 -11z"/>
<path d="M1270 5128 c-27 -29 -25 -59 5 -92 29 -31 67 -34 95 -6 42 42 10 120
-50 120 -17 0 -38 -9 -50 -22z"/>
<path d="M136 5132 c-2 -4 -1 -14 4 -22 7 -11 9 -9 7 8 -1 24 -3 26 -11 14z"/>
<path d="M8893 5105 c0 -8 4 -12 9 -9 5 3 6 10 3 15 -9 13 -12 11 -12 -6z"/>
<path d="M2990 4980 c0 -5 5 -10 11 -10 5 0 7 5 4 10 -3 6 -8 10 -11 10 -2 0
-4 -4 -4 -10z"/>
<path d="M3025 4970 c-4 -6 -3 -10 2 -9 16 4 43 -13 36 -24 -3 -6 -1 -7 5 -3
16 10 16 11 -12 30 -16 10 -27 12 -31 6z"/>
<path d="M3350 4772 c0 -5 7 -9 15 -9 8 0 12 4 9 9 -3 4 -9 8 -15 8 -5 0 -9
-4 -9 -8z"/>
<path d="M3384 4744 c-18 -15 -18 -15 2 -5 12 6 25 7 29 3 5 -4 5 -1 1 6 -9
15 -8 15 -32 -4z"/>
<path d="M3580 4636 c0 -2 8 -10 18 -17 15 -13 16 -12 3 4 -13 16 -21 21 -21
13z"/>
<path d="M3696 4567 c3 -10 9 -15 12 -12 3 3 0 11 -7 18 -10 9 -11 8 -5 -6z"/>
<path d="M3734 4542 c10 -12 23 -20 30 -19 6 1 10 -6 8 -17 -2 -11 1 -15 7
-11 23 14 6 42 -29 49 -3 1 -12 5 -20 10 -9 6 -8 1 4 -12z"/>
<path d="M8866 4508 c3 -5 10 -6 15 -3 13 9 11 12 -6 12 -8 0 -12 -4 -9 -9z"/>
<path d="M193 4445 c0 -8 4 -12 9 -9 5 3 6 10 3 15 -9 13 -12 11 -12 -6z"/>
<path d="M199 4373 c-13 -16 -12 -17 4 -4 9 7 17 15 17 17 0 8 -8 3 -21 -13z"/>
<path d="M8825 4270 c3 -6 1 -10 -6 -10 -7 0 -10 -3 -6 -6 3 -3 13 -2 22 4 16
8 16 9 1 15 -10 4 -15 3 -11 -3z"/>
<path d="M3355 4200 c-3 -5 -1 -10 4 -10 6 0 11 5 11 10 0 6 -2 10 -4 10 -3 0
-8 -4 -11 -10z"/>
<path d="M8833 4116 c0 -7 8 -18 17 -23 12 -8 16 -7 16 8 0 10 -2 16 -5 14 -2
-3 -9 0 -16 5 -8 7 -12 5 -12 -4z"/>
<path d="M285 4050 c-17 -7 -17 -9 -3 -9 11 -1 15 -6 12 -16 -4 -8 -2 -15 3
-15 5 0 9 11 9 25 0 14 0 25 0 24 -1 0 -10 -4 -21 -9z"/>
<path d="M302 3960 c0 -14 2 -19 5 -12 2 6 2 18 0 25 -3 6 -5 1 -5 -13z"/>
<path d="M3130 3889 c0 -5 5 -7 10 -4 6 3 10 8 10 11 0 2 -4 4 -10 4 -5 0 -10
-5 -10 -11z"/>
<path d="M8885 3866 c-26 -19 -26 -83 0 -102 27 -20 58 -17 84 7 18 17 22 28
17 52 -4 17 -10 35 -15 40 -16 16 -66 18 -86 3z"/>
<path d="M3037 3773 c4 -9 0 -11 -11 -7 -9 3 -16 4 -16 1 0 -15 31 -13 45 3
16 18 16 19 -3 17 -12 0 -18 -6 -15 -14z"/>
<path d="M8125 3740 c3 -5 8 -10 11 -10 2 0 4 5 4 10 0 6 -5 10 -11 10 -5 0
-7 -4 -4 -10z"/>
<path d="M380 3719 c-13 -9 -12 -10 2 -5 10 3 20 1 23 -4 4 -6 2 -10 -2 -10
-5 0 -17 -6 -27 -13 -16 -11 -14 -13 13 -12 39 1 45 8 29 34 -15 24 -17 25
-38 10z"/>
<path d="M2176 3685 c4 -8 11 -15 16 -15 6 0 5 6 -2 15 -7 8 -14 15 -16 15 -2
0 -1 -7 2 -15z"/>
<path d="M9105 3663 c-31 -28 -31 -66 0 -97 l27 -27 -38 -92 c-20 -51 -54
-132 -75 -181 -22 -49 -39 -95 -39 -103 0 -7 -4 -13 -10 -13 -5 0 -10 -9 -10
-20 0 -11 -4 -20 -10 -20 -6 0 -9 -3 -8 -7 1 -5 -5 -21 -12 -38 -7 -16 -14
-32 -14 -35 -1 -3 -11 -21 -24 -41 -12 -20 -22 -41 -22 -47 0 -6 -6 -17 -12
-24 -7 -7 -20 -26 -28 -43 -8 -16 -17 -32 -20 -35 -3 -3 -13 -21 -23 -40 -28
-53 -51 -93 -60 -105 -18 -25 -57 -86 -57 -91 0 -3 -9 -14 -20 -26 -11 -12
-20 -28 -20 -35 0 -7 -4 -13 -9 -13 -8 0 -101 -124 -101 -135 0 -3 -8 -13 -17
-23 -10 -11 -27 -31 -37 -46 -11 -15 -27 -36 -35 -46 -9 -10 -26 -32 -38 -48
-43 -55 -215 -245 -361 -399 -57 -60 -63 -70 -58 -97 8 -38 14 -44 53 -52 29
-6 38 1 145 108 100 102 182 190 248 268 11 14 34 41 51 60 46 54 52 62 83
105 16 22 32 42 35 45 15 13 61 80 61 89 0 6 5 11 10 11 6 0 14 8 17 18 4 9
15 26 25 36 10 11 18 25 18 32 0 6 7 15 16 18 8 3 12 10 9 16 -3 5 -1 10 4 10
6 0 11 6 11 14 0 8 4 16 9 18 12 4 151 231 151 246 0 7 4 12 9 12 5 0 15 16
22 35 7 19 17 35 22 35 4 0 5 5 2 10 -3 6 -1 10 4 10 6 0 10 3 9 8 -1 4 5 19
15 33 19 29 187 388 191 409 1 3 7 19 13 35 24 58 36 90 38 95 0 3 9 29 19 58
26 76 16 117 -31 137 -62 26 -106 29 -128 8z"/>
<path d="M2255 3641 c-3 -5 -2 -12 3 -15 5 -3 9 1 9 9 0 17 -3 19 -12 6z"/>
<path d="M387 3619 c7 -7 15 -10 18 -7 3 3 -2 9 -12 12 -14 6 -15 5 -6 -5z"/>
<path d="M546 3475 c3 -7 12 -16 19 -19 9 -3 12 0 9 9 -3 7 -12 16 -19 19 -9
3 -12 0 -9 -9z"/>
<path d="M5974 3349 c-4 -7 -2 -15 4 -17 7 -2 10 -8 6 -13 -3 -5 0 -9 5 -9 6
0 10 9 8 20 -4 26 -13 34 -23 19z"/>
<path d="M6005 3240 c3 -5 11 -10 16 -10 6 0 7 5 4 10 -3 6 -11 10 -16 10 -6
0 -7 -4 -4 -10z"/>
<path d="M772 3160 c-45 -42 -13 -120 49 -120 44 0 77 20 84 51 15 70 -79 119
-133 69z"/>
<path d="M6034 3110 c1 -14 6 -24 9 -22 11 4 11 6 -1 27 -11 19 -12 18 -8 -5z"/>
<path d="M2520 3116 c0 -2 9 -6 20 -9 11 -3 18 -1 14 4 -5 9 -34 13 -34 5z"/>
<path d="M6094 2881 c0 -11 5 -17 13 -14 10 4 11 9 2 19 -15 18 -15 18 -15 -5z"/>
<path d="M2625 2720 c-3 -6 1 -7 9 -4 18 7 21 14 7 14 -6 0 -13 -4 -16 -10z"/>
<path d="M1165 2364 c-28 -21 -27 -86 3 -114 12 -11 22 -24 22 -29 0 -4 8 -16
18 -27 9 -10 35 -42 57 -69 49 -61 78 -94 131 -151 22 -24 53 -58 68 -76 22
-27 34 -33 67 -33 85 0 89 68 9 148 -28 27 -50 52 -50 56 0 4 -8 13 -17 22
-19 16 -99 111 -163 193 -8 10 -23 27 -32 38 -10 10 -18 22 -18 28 0 12 -34
30 -57 30 -10 0 -27 -7 -38 -16z"/>
<path d="M2126 2292 c-3 -5 1 -9 9 -9 8 0 12 4 9 9 -3 4 -7 8 -9 8 -2 0 -6 -4
-9 -8z"/>
<path d="M6820 2219 c0 -5 5 -7 10 -4 6 3 10 8 10 11 0 2 -4 4 -10 4 -5 0 -10
-5 -10 -11z"/>
<path d="M6830 2040 c0 -5 7 -10 16 -10 9 0 12 -5 8 -12 -4 -7 -3 -8 4 -4 16
10 15 14 -8 26 -14 7 -20 7 -20 0z"/>
<path d="M6595 1961 c-28 -12 -47 -51 -41 -83 3 -21 0 -29 -17 -34 -80 -25
-47 -144 40 -144 28 0 63 37 63 65 0 13 -10 33 -22 45 l-22 20 55 0 c63 0 99
24 99 66 0 56 -87 92 -155 65z"/>
<path d="M6375 1923 c-44 -24 -55 -38 -55 -72 0 -74 75 -94 134 -35 41 41 46
74 14 104 -26 24 -52 25 -93 3z"/>
<path d="M6770 1828 c-38 -41 -16 -107 42 -127 43 -15 51 -14 76 9 26 24 28
56 7 96 -24 48 -90 59 -125 22z"/>
<path d="M1650 1808 c-33 -35 -25 -63 35 -125 47 -49 60 -57 91 -57 24 0 41 6
50 19 26 36 16 63 -45 125 -66 66 -96 75 -131 38z"/>
<path d="M7308 1726 c-58 -49 -16 -126 67 -126 59 0 89 27 80 73 -14 71 -94
100 -147 53z"/>
<path d="M4105 1654 c-8 -13 -15 -30 -15 -38 0 -9 -7 -12 -19 -9 -33 8 -91
-17 -102 -44 -16 -43 -10 -72 22 -103 31 -29 38 -32 84 -35 42 -2 63 49 46
110 -8 31 -8 35 5 24 8 -6 27 -9 44 -5 17 3 30 1 30 -4 0 -5 15 -12 34 -15 44
-9 81 14 84 53 3 45 -18 65 -73 67 -26 1 -50 6 -54 12 -3 5 -21 9 -38 10 -23
0 -37 -6 -48 -23z"/>
<path d="M6575 1665 c-32 -25 -30 -68 5 -104 27 -26 39 -31 79 -31 59 0 91 24
91 68 0 39 -29 68 -78 76 -55 9 -75 7 -97 -9z"/>
<path d="M2643 1638 c-3 -7 -1 -8 6 -4 6 4 14 0 17 -8 8 -20 21 -21 21 -2 0
18 -34 28 -44 14z"/>
<path d="M7114 1601 c-22 -10 -59 -30 -82 -45 -23 -14 -42 -23 -42 -20 0 4 -6
1 -14 -5 -11 -9 -15 -9 -19 1 -3 7 -6 4 -6 -7 -1 -16 -3 -17 -10 -5 -6 8 -7
18 -4 23 3 5 -4 3 -16 -5 -12 -7 -21 -20 -21 -28 1 -11 4 -10 15 4 12 16 15
17 15 4 0 -17 -24 -31 -35 -20 -4 4 -20 7 -36 8 -23 0 -26 -2 -17 -13 9 -11 6
-13 -15 -9 -15 2 -30 -1 -33 -7 -4 -7 -4 -9 1 -5 4 4 15 2 23 -5 13 -10 14 -9
7 2 -5 10 -4 12 4 7 16 -11 3 -26 -16 -19 -10 4 -14 2 -9 -5 3 -6 1 -14 -5
-18 -8 -4 -9 -3 -5 4 4 7 1 12 -8 12 -9 0 -13 -6 -10 -13 5 -14 -73 -60 -101
-60 -8 0 -13 -3 -10 -5 5 -5 -118 -58 -155 -67 -8 -2 -42 -13 -75 -25 -33 -11
-61 -20 -63 -20 -1 0 -15 -6 -31 -14 -15 -8 -41 -17 -57 -20 -16 -3 -40 -14
-55 -25 -14 -11 -41 -22 -60 -25 -49 -8 -69 -12 -119 -26 -25 -7 -52 -14 -61
-15 -9 -2 -34 -8 -55 -14 -22 -6 -56 -11 -77 -11 -21 0 -52 -7 -69 -16 -41
-21 -113 -43 -168 -50 -25 -3 -61 -9 -80 -14 -39 -10 -157 -18 -360 -25 -182
-7 -284 -19 -313 -38 -17 -11 -27 -13 -35 -5 -15 15 -91 19 -128 7 -48 -15
-57 -43 -45 -129 5 -41 8 -76 5 -79 -2 -2 4 -13 13 -24 10 -11 12 -17 6 -13
-8 4 -13 2 -13 -6 0 -8 -5 -6 -11 5 -6 9 -15 14 -21 11 -6 -4 -8 -2 -4 4 3 6
2 13 -4 17 -5 3 -10 0 -10 -7 0 -9 -3 -9 -10 2 -5 8 -10 20 -10 25 0 6 4 4 8
-3 7 -9 13 -8 27 8 15 17 16 20 3 15 -17 -7 -73 23 -63 33 3 3 14 -3 25 -13
11 -10 23 -15 27 -12 3 4 1 7 -6 7 -7 0 -9 5 -5 12 4 7 3 8 -5 4 -6 -4 -14 0
-18 9 -3 10 0 21 8 26 8 5 9 9 3 9 -6 0 -21 -11 -33 -24 l-22 -24 21 -15 21
-15 -28 -10 c-15 -6 -22 -11 -15 -11 8 -1 10 -6 6 -13 -4 -7 3 -4 16 7 13 11
20 14 16 7 -4 -7 -2 -19 4 -27 7 -8 9 -15 5 -15 -4 0 -2 -7 5 -15 7 -8 9 -24
5 -37 -7 -22 -6 -22 7 -4 12 15 18 17 36 7 12 -6 22 -14 22 -17 0 -2 -9 0 -21
6 -11 7 -23 9 -26 7 -2 -3 5 -10 16 -17 12 -6 19 -15 16 -21 -4 -5 -1 -9 5 -9
6 0 8 -5 4 -12 -5 -7 -3 -8 5 -4 7 5 17 18 22 30 8 17 8 16 4 -8 -6 -27 -5
-28 11 -15 13 11 18 11 21 1 3 -6 9 -10 14 -7 5 4 6 -1 3 -10 -5 -11 -2 -15 7
-13 16 3 89 -37 89 -50 0 -4 14 -16 31 -26 29 -17 46 -18 180 -12 81 4 171 11
201 16 64 12 192 26 308 35 93 7 209 23 222 31 4 3 46 9 92 14 47 5 106 15
133 24 26 8 89 27 138 41 50 15 101 30 115 35 14 5 48 12 75 16 28 4 52 8 55
9 3 0 34 14 70 30 36 17 68 29 73 27 4 -1 7 2 7 7 0 5 12 12 28 16 28 6 74 26
267 111 60 27 112 49 115 49 3 1 25 11 49 24 24 13 65 29 91 37 31 9 51 22 60
39 7 14 17 25 22 25 14 0 48 81 48 114 l0 29 25 -27 c25 -28 63 -34 83 -14 7
7 12 8 12 3 0 -4 9 2 20 15 35 40 24 133 -19 168 -20 16 -70 7 -87 -16 -12
-15 -13 -7 -14 58 -2 144 -21 200 -69 200 -9 0 -34 -9 -57 -19z m-232 -112 c2
-2 1 -3 -1 -2 -2 2 -9 -4 -15 -13 -10 -13 -12 -13 -12 4 0 17 20 25 28 11z
m-2194 -791 c-2 -7 3 -12 10 -10 8 1 11 -2 7 -8 -5 -8 -11 -8 -21 1 -7 6 -11
15 -8 20 8 13 14 11 12 -3z"/>
<path d="M2740 1602 c0 -5 7 -15 15 -22 8 -7 15 -9 15 -6 0 4 -7 14 -15 22 -8
9 -15 11 -15 6z"/>
<path d="M3938 1364 c-48 -26 -49 -96 -1 -115 40 -15 62 -11 88 17 30 33 32
63 5 92 -24 25 -54 27 -92 6z"/>
<path d="M5212 1130 c-25 -24 -28 -57 -8 -85 9 -13 30 -20 70 -23 50 -4 60 -2
82 19 20 19 24 30 20 53 -8 40 -33 55 -92 56 -37 0 -56 -5 -72 -20z"/>
<path d="M2669 1090 c-22 -13 -31 -53 -20 -83 12 -32 92 -71 123 -61 71 22 61
96 -19 138 -36 18 -60 20 -84 6z"/>
<path d="M4231 991 c-12 -12 -21 -25 -21 -31 0 -5 -6 -7 -14 -4 -16 6 -56 -12
-68 -30 -22 -33 0 -106 37 -126 25 -13 75 -6 86 12 10 15 92 17 107 2 10 -10
10 -18 2 -34 -16 -30 -3 -74 31 -111 16 -17 29 -34 29 -38 0 -9 33 -35 51 -40
47 -13 58 -12 78 8 21 21 30 81 11 81 -5 0 -10 6 -10 14 0 8 -13 25 -28 38
-25 21 -27 27 -19 52 10 29 -12 94 -40 124 -7 7 -13 17 -13 22 0 24 -54 65
-88 67 -21 2 -53 6 -74 9 -28 5 -40 2 -57 -15z"/>
<path d="M4548 923 c0 -5 -2 -12 -3 -18 -2 -5 -3 -16 -4 -23 -1 -8 -6 -10 -13
-6 -10 5 -10 4 -1 -6 6 -7 9 -19 6 -26 -3 -8 0 -14 6 -14 17 0 50 60 43 78 -4
11 -7 12 -10 4 -2 -7 -8 -12 -14 -12 -6 0 -8 7 -4 15 3 8 3 15 1 15 -3 0 -6
-3 -7 -7z m16 -44 c-10 -12 -18 -24 -17 -28 1 -3 0 -8 -3 -10 -2 -2 -1 7 1 19
3 13 10 27 17 32 22 13 22 9 2 -13z"/>
<path d="M4539 811 c11 -7 11 -9 0 -14 -8 -3 -4 -4 8 -4 17 1 19 4 11 14 -6 7
-16 13 -22 13 -6 0 -5 -4 3 -9z"/>
<path d="M4645 750 c20 -22 34 -28 16 -7 -6 8 -8 17 -4 20 3 4 -2 7 -12 7 -17
0 -17 -1 0 -20z"/>
<path d="M4574 725 c0 -13 4 -21 8 -19 4 3 8 0 8 -7 0 -7 3 -9 6 -6 4 4 2 13
-4 20 -7 8 -9 16 -6 19 3 3 1 8 -3 11 -5 3 -9 -5 -9 -18z"/>
<path d="M3893 640 c-27 -11 -38 -47 -24 -82 8 -22 20 -29 78 -42 94 -21 159
-29 182 -21 24 7 45 57 36 85 -7 23 -36 37 -93 46 -19 3 -44 8 -56 10 -54 11
-103 13 -123 4z"/>
<path d="M4710 606 c0 -9 5 -16 10 -16 6 0 10 4 10 9 0 6 -4 13 -10 16 -5 3
-10 -1 -10 -9z"/>
</g>
</svg>
